<?xml version="1.0" standalone="no"?><!DOCTYPE svg PUBLIC "-//W3C//DTD SVG 1.1//EN" "http://www.w3.org/Graphics/SVG/1.1/DTD/svg11.dtd" ><svg xmlns="http://www.w3.org/2000/svg"><metadata></metadata><defs><font id="1.004;ADBO;SourceHanSansCN-Normal;2015;TR4-4.0.1.5099" horiz-adv-x="1000"><font-face font-family="Source Han Sans CN Normal" font-weight="300" font-stretch="normal" units-per-em="1000" panose-1="2 11 4 0 0 0 0 0 0 0" ascent="1160" descent="-320" x-height="0" bbox="-42 -251 972 880" underline-thickness="50" underline-position="-125" unicode-range="U+0023-ff1a" /><missing-glyph horiz-adv-x="1000" d="M100 880 l800 0 l0 -1000 l-800 0 l0 1000 ZM818 830 l-636 0 l318 -409 l318 409 ZM850 -29 l0 818 l-318 -409 l318 -409 ZM818 -70 l-318 409 l-318 -409 l636 0 ZM150 -29 l318 409 l-318 409 l0 -818 Z" /><glyph glyph-name="" unicode="#" d="M129 230 l-89 0 l0 59 l96 0 l21 170 l-95 0 l0 58 l102 0 l26 207 l54 0 l-25 -207 l152 0 l27 207 l54 0 l-27 -207 l90 0 l0 -58 l-96 0 l-21 -170 l95 0 l0 -59 l-102 0 l-27 -230 l-55 0 l27 230 l-152 0 l-28 -230 l-55 0 l28 230 ZM343 289 l21 170 l-152 0 l-21 -170 l152 0 Z" /><glyph glyph-name="" unicode="&#39;" d="M92 673 l-2 97 l88 0 l-3 -97 l-15 -180 l-52 0 l-16 180 Z" /><glyph glyph-name="" unicode="(" d="M240 -196 q-69 112 -108 235 q-39 123 -39 271 q0 148 39 271 q39 123 108 235 l50 -24 q-65 -107 -97 -230 q-32 -123 -32 -252 q0 -129 32 -252 q32 -123 97 -230 l-50 -24 Z" /><glyph glyph-name="" unicode=")" d="M41 -172 q65 107 97 230 q32 123 32 252 q0 129 -32 252 q-32 123 -97 230 l50 24 q69 -112 108 -235 q39 -123 39 -271 q0 -148 -39 -271 q-39 -123 -108 -235 l-50 24 Z" /><glyph glyph-name="" unicode="+" d="M241 337 l-203 0 l0 61 l203 0 l0 220 l67 0 l0 -220 l203 0 l0 -61 l-203 0 l0 -220 l-67 0 l0 220 Z" /><glyph glyph-name="" unicode="-&#x2011;" d="M46 311 l253 0 l0 -64 l-253 0 l0 64 Z" /><glyph glyph-name="" unicode="." d="M134 -13 q-25 0 -43 17.5 q-18 17.5 -18 46.5 q0 30 18 48 q18 18 43 18 q26 0 44 -18 q18 -18 18 -48 q0 -29 -18 -46.5 q-18 -17.5 -44 -17.5 Z" /><glyph glyph-name="" unicode="/" d="M319 791 l61 0 l-309 -969 l-60 0 l308 969 Z" /><glyph glyph-name="" unicode="0" d="M275 -13 q-103 0 -164 95 q-61 95 -61 287 q0 191 61 283.5 q61 92.5 164 92.5 q103 0 163 -93 q60 -93 60 -283 q0 -192 -60 -287 q-60 -95 -163 -95 ZM275 53 q65 0 104.5 76.5 q39.5 76.5 39.5 239.5 q0 161 -39.5 235.5 q-39.5 74.5 -104.5 74.5 q-65 0 -105.5 -74.5 q-40.5 -74.5 -40.5 -235.5 q0 -163 40.5 -239.5 q40.5 -76.5 105.5 -76.5 Z" /><glyph glyph-name="" unicode="1" d="M89 68 l164 0 l0 561 l-129 0 l0 53 q92 16 148 50 l62 0 l0 -664 l149 0 l0 -68 l-394 0 l0 68 Z" /><glyph glyph-name="" unicode="2" d="M45 49 q176 153 257 268.5 q81 115.5 81 210.5 q0 65 -34 108 q-34 43 -105 43 q-46 0 -85 -25 q-39 -25 -71 -62 l-48 46 q45 48 94.5 77.5 q49.5 29.5 118.5 29.5 q49 0 88 -15 q39 -15 66 -43 q27 -28 41.5 -67.5 q14.5 -39.5 14.5 -88.5 q0 -55 -21 -111.5 q-21 -56.5 -59.5 -114.5 q-38.5 -58 -93 -118 q-54.5 -60 -121.5 -123 q29 3 60.5 4.5 q31.5 1.5 59.5 1.5 l210 0 l0 -70 l-453 0 l0 49 Z" /><glyph glyph-name="" unicode="3" d="M262 -13 q-43 0 -78 8.5 q-35 8.5 -63.5 22.5 q-28.5 14 -50.5 32 q-22 18 -40 37 l42 53 q32 -33 76 -59 q44 -26 109 -26 q67 0 110 38 q43 38 43 104 q0 34 -12.5 62 q-12.5 28 -40 48 q-27.5 20 -71.5 31 q-44 11 -108 11 l0 64 q57 0 96.5 11 q39.5 11 64 30.5 q24.5 19.5 35 46 q10.5 26.5 10.5 57.5 q0 55 -34 88 q-34 33 -94 34 q-45 -1 -84 -21.5 q-39 -20.5 -70 -52.5 l-45 53 q41 37 90 61.5 q49 24.5 112 25.5 q45 0 83 -12.5 q38 -12.5 66 -35.5 q28 -23 43.5 -56.5 q15.5 -33.5 15.5 -77.5 q0 -69 -36 -113 q-36 -44 -95 -65 l0 -4 q32 -7 60.5 -23 q28.5 -16 49.5 -40 q21 -24 33.5 -55 q12.5 -31 12.5 -69 q0 -49 -18 -87.5 q-18 -38.5 -49 -65.5 q-31 -27 -73 -41 q-42 -14 -90 -14 Z" /><glyph glyph-name="" unicode="4" d="M340 269 l0 238 q0 27 2 65 q2 38 4 65 l-5 0 q-14 -26 -28.5 -53 q-14.5 -27 -29.5 -53 l-177 -262 l234 0 ZM517 204 l-100 0 l0 -204 l-77 0 l0 204 l-321 0 l0 53 l311 475 l87 0 l0 -463 l100 0 l0 -65 Z" /><glyph glyph-name="" unicode="5" d="M259 -13 q-43 0 -77.5 8.5 q-34.5 8.5 -62.5 22 q-28 13.5 -50.5 31 q-22.5 17.5 -40.5 35.5 l41 54 q32 -32 75 -57.5 q43 -25.5 108 -25.5 q33 0 62.5 12.5 q29.5 12.5 51 36 q21.5 23.5 34.5 57 q13 33.5 13 74.5 q0 81 -42.5 127 q-42.5 46 -114.5 46 q-38 0 -65 -11.5 q-27 -11.5 -59 -32.5 l-45 28 l23 340 l350 0 l0 -70 l-278 0 l-20 -222 q26 14 52.5 22.5 q26.5 8.5 61.5 8.5 q45 0 85 -14 q40 -14 70 -42.5 q30 -28.5 47 -72.5 q17 -44 17 -105 q0 -60 -20 -106.5 q-20 -46.5 -53 -78.5 q-33 -32 -75.5 -48.5 q-42.5 -16.5 -87.5 -16.5 Z" /><glyph glyph-name="" unicode="6" d="M299 52 q27 0 50.5 12.5 q23.5 12.5 41 35 q17.5 22.5 27 54 q9.5 31.5 9.5 69.5 q0 77 -33 123 q-33 46 -104 46 q-35 0 -75.5 -22 q-40.5 -22 -78.5 -75 q8 -117 49 -180 q41 -63 114 -63 ZM446 621 q-23 26 -54 41 q-31 15 -64 15 q-39 0 -73.5 -16 q-34.5 -16 -60.5 -52.5 q-26 -36.5 -42 -96.5 q-16 -60 -18 -148 q35 42 79.5 65.5 q44.5 23.5 89.5 23.5 q94 0 148 -57.5 q54 -57.5 54 -172.5 q0 -52 -16.5 -95.5 q-16.5 -43.5 -45 -75 q-28.5 -31.5 -65.5 -48.5 q-37 -17 -79 -17 q-53 0 -97.5 23 q-44.5 23 -76.5 68 q-32 45 -50 112.5 q-18 67.5 -18 157.5 q0 108 22 184 q22 76 59.5 123 q37.5 47 86 68.5 q48.5 21.5 100.5 21.5 q55 0 96 -20.5 q41 -20.5 71 -52.5 l-46 -51 Z" /><glyph glyph-name="" unicode="7" d="M200 0 q5 106 17.5 194.5 q12.5 88.5 37 167.5 q24.5 79 62 152 q37.5 73 91.5 148 l-359 0 l0 70 l453 0 l0 -49 q-65 -84 -105.5 -161 q-40.5 -77 -63.5 -157 q-23 -80 -33 -169 q-10 -89 -15 -196 l-85 0 Z" /><glyph glyph-name="" unicode="8" d="M277 -13 q-50 0 -92.5 14.5 q-42.5 14.5 -73.5 40.5 q-31 26 -48.5 62 q-17.5 36 -17.5 78 q0 37 12 68.5 q12 31.5 31 57 q19 25.5 43.5 45 q24.5 19.5 49.5 33.5 l0 4 q-40 27 -69.5 68.5 q-29.5 41.5 -29.5 99.5 q0 41 15 75 q15 34 41.5 58.5 q26.5 24.5 62.5 38 q36 13.5 78 13.5 q47 0 83.5 -14.5 q36.5 -14.5 62.5 -40 q26 -25.5 39.5 -61 q13.5 -35.5 13.5 -77.5 q0 -29 -9.5 -55.5 q-9.5 -26.5 -24 -49.5 q-14.5 -23 -32 -41.5 q-17.5 -18.5 -33.5 -31.5 l0 -5 q24 -14 46.5 -31.5 q22.5 -17.5 39.5 -41 q17 -23.5 27.5 -52.5 q10.5 -29 10.5 -67 q0 -39 -16.5 -73.5 q-16.5 -34.5 -46 -60 q-29.5 -25.5 -71 -40 q-41.5 -14.5 -92.5 -14.5 ZM327 394 q80 68 80 152 q0 28 -8.5 52.5 q-8.5 24.5 -25 43 q-16.5 18.5 -41 29 q-24.5 10.5 -55.5 10.5 q-52 0 -86 -34 q-34 -34 -34 -89 q0 -34 14.5 -59 q14.5 -25 38 -44 q23.5 -19 54 -33.5 q30.5 -14.5 63.5 -27.5 ZM278 48 q66 0 106.5 36.5 q40.5 36.5 40.5 92.5 q0 38 -16.5 65.5 q-16.5 27.5 -44 48 q-27.5 20.5 -63.5 37 q-36 16.5 -76 32.5 q-47 -29 -76.5 -73 q-29.5 -44 -29.5 -99 q0 -30 12 -55.5 q12 -25.5 33.5 -44.5 q21.5 -19 50.5 -29.5 q29 -10.5 63 -10.5 Z" /><glyph glyph-name="" unicode="9" d="M258 340 q38 0 79 23.5 q41 23.5 79 77.5 q-6 115 -48 177.5 q-42 62.5 -117 62.5 q-27 0 -50.5 -12.5 q-23.5 -12.5 -41 -35 q-17.5 -22.5 -27 -54.5 q-9.5 -32 -9.5 -70 q0 -76 33 -122.5 q33 -46.5 102 -46.5 ZM104 111 q24 -26 56 -41 q32 -15 69 -15 q36 0 69 16.5 q33 16.5 58.5 53.5 q25.5 37 41.5 98 q16 61 19 149 q-35 -42 -79.5 -67.5 q-44.5 -25.5 -92.5 -25.5 q-92 0 -146 58 q-54 58 -54 172 q0 53 16.5 96 q16.5 43 44.5 74.5 q28 31.5 65.5 48.5 q37.5 17 79.5 17 q53 0 97.5 -21.5 q44.5 -21.5 77 -65 q32.5 -43.5 50.5 -108 q18 -64.5 18 -150.5 q0 -112 -22 -191 q-22 -79 -58.5 -128 q-36.5 -49 -84 -71.5 q-47.5 -22.5 -98.5 -22.5 q-58 0 -100 20.5 q-42 20.5 -72 52.5 l45 51 Z" /><glyph glyph-name="" unicode=":" d="M134 395 q-25 0 -43 17.5 q-18 17.5 -18 46.5 q0 30 18 48 q18 18 43 18 q26 0 44 -18 q18 -18 18 -48 q0 -29 -18 -46.5 q-18 -17.5 -44 -17.5 ZM134 -13 q-25 0 -43 17.5 q-18 17.5 -18 46.5 q0 30 18 48 q18 18 43 18 q26 0 44 -18 q18 -18 18 -48 q0 -29 -18 -46.5 q-18 -17.5 -44 -17.5 Z" /><glyph glyph-name="" unicode="&lt;" d="M38 336 l0 67 l473 187 l0 -72 l-241 -89 l-149 -57 l0 -4 l149 -56 l241 -90 l0 -72 l-473 186 Z" /><glyph glyph-name="" unicode="&gt;" d="M38 222 l241 90 l149 56 l0 4 l-149 57 l-241 89 l0 72 l473 -187 l0 -67 l-473 -186 l0 72 Z" /><glyph glyph-name="" unicode="@" d="M445 -170 q-82 0 -153 26 q-71 26 -123.5 76 q-52.5 50 -82.5 124 q-30 74 -30 170 q0 111 37.5 202 q37.5 91 100.5 155 q63 64 146.5 99 q83.5 35 175.5 35 q84 0 151 -26.5 q67 -26.5 114 -74.5 q47 -48 72 -115.5 q25 -67.5 25 -149.5 q0 -72 -20 -127 q-20 -55 -51.5 -92 q-31.5 -37 -70.5 -56 q-39 -19 -76 -19 q-46 0 -77.5 20.5 q-31.5 20.5 -36.5 63.5 l-2 0 q-28 -32 -63 -54.5 q-35 -22.5 -73 -22.5 q-56 0 -94 40.5 q-38 40.5 -38 116.5 q0 44 15 89 q15 45 42.5 82.5 q27.5 37.5 67 61 q39.5 23.5 88.5 23.5 q59 0 90 -54 l2 0 l11 45 l56 0 l-43 -219 q-17 -69 -1.5 -102 q15.5 -33 63.5 -33 q26 0 53 16 q27 16 49 46 q22 30 36 73.5 q14 43.5 14 98.5 q0 69 -20 126.5 q-20 57.5 -59.5 99 q-39.5 41.5 -97 64.5 q-57.5 23 -132.5 23 q-75 0 -145.5 -30.5 q-70.5 -30.5 -125.5 -87 q-55 -56.5 -88 -136.5 q-33 -80 -33 -178 q0 -81 25 -145 q25 -64 69.5 -108 q44.5 -44 105.5 -67 q61 -23 133 -23 q52 0 98 14 q46 14 84 37 l23 -50 q-97 -57 -211 -57 ZM423 122 q25 0 51.5 16 q26.5 16 55.5 52 l33 181 q-17 27 -34 37.5 q-17 10.5 -41 10.5 q-34 0 -61 -18 q-27 -18 -46 -46 q-19 -28 -29 -62.5 q-10 -34.5 -10 -66.5 q0 -57 23 -80.5 q23 -23.5 58 -23.5 Z" /><glyph glyph-name="" unicode="a" d="M415 296 l-38 119 q-21 63 -39 123 q-18 60 -37 125 l-4 0 q-18 -66 -36.5 -125.5 q-18.5 -59.5 -38.5 -122.5 l-38 -119 l231 0 ZM436 231 l-273 0 l-75 -231 l-83 0 l250 732 l91 0 l251 -732 l-88 0 l-73 231 Z" /><glyph glyph-name="" unicode="c" d="M374 -13 q-68 0 -125.5 26 q-57.5 26 -99.5 74.5 q-42 48.5 -66 119 q-24 70.5 -24 159.5 q0 88 24 158.5 q24 70.5 67 119.5 q43 49 102 75 q59 26 128 26 q67 0 117 -27 q50 -27 82 -62 l-46 -54 q-29 32 -66.5 51 q-37.5 19 -85.5 19 q-54 0 -97.5 -21 q-43.5 -21 -74.5 -60.5 q-31 -39.5 -48 -95.5 q-17 -56 -17 -127 q0 -71 16.5 -128 q16.5 -57 46.5 -97 q30 -40 73.5 -61.5 q43.5 -21.5 97.5 -21.5 q54 0 95.5 21.5 q41.5 21.5 77.5 62.5 l46 -52 q-43 -51 -97 -78 q-54 -27 -126 -27 Z" /><glyph glyph-name="" unicode="d" d="M102 732 l180 0 q169 0 255.5 -95 q86.5 -95 86.5 -268 q0 -86 -21.5 -154.5 q-21.5 -68.5 -64.5 -116 q-43 -47.5 -106.5 -73 q-63.5 -25.5 -146.5 -25.5 l-183 0 l0 732 ZM275 68 q134 0 199 80.5 q65 80.5 65 220.5 q0 141 -65 218 q-65 77 -199 77 l-90 0 l0 -596 l90 0 Z" /><glyph glyph-name="" unicode="e" d="M102 732 l417 0 l0 -70 l-334 0 l0 -241 l281 0 l0 -70 l-281 0 l0 -281 l345 0 l0 -70 l-428 0 l0 732 Z" /><glyph glyph-name="" unicode="g" d="M385 -13 q-72 0 -132 26 q-60 26 -103 74.5 q-43 48.5 -67 119 q-24 70.5 -24 159.5 q0 88 24.5 158.5 q24.5 70.5 69 119.5 q44.5 49 105.5 75 q61 26 133 26 q38 0 69.5 -8 q31.5 -8 57 -20.5 q25.5 -12.5 46 -28.5 q20.5 -16 36.5 -32 l-46 -54 q-28 29 -66 49.5 q-38 20.5 -95 20.5 q-57 0 -103 -21 q-46 -21 -78.5 -60.5 q-32.5 -39.5 -50 -95.5 q-17.5 -56 -17.5 -127 q0 -71 16.5 -128 q16.5 -57 48.5 -97 q32 -40 78 -61.5 q46 -21.5 106 -21.5 q42 0 79 12 q37 12 60 34 l0 200 l-159 0 l0 69 l236 0 l0 -304 q-35 -37 -92.5 -60.5 q-57.5 -23.5 -131.5 -23.5 Z" /><glyph glyph-name="" unicode="i" d="M102 732 l83 0 l0 -732 l-83 0 l0 732 Z" /><glyph glyph-name="" unicode="m" d="M102 732 l102 0 l144 -400 q14 -39 26.5 -78 q12.5 -39 26.5 -78 l5 0 q14 39 26 78 q12 39 25 78 l143 400 l102 0 l0 -732 l-77 0 l0 423 q0 47 3.5 105.5 q3.5 58.5 6.5 106.5 l-4 0 l-58 -166 l-143 -394 l-57 0 l-144 394 l-58 166 l-4 0 q3 -48 6.5 -106.5 q3.5 -58.5 3.5 -105.5 l0 -423 l-75 0 l0 732 Z" /><glyph glyph-name="" unicode="n" d="M102 732 l85 0 l277 -474 l79 -150 l5 0 q-4 55 -7.5 113 q-3.5 58 -3.5 115 l0 396 l79 0 l0 -732 l-86 0 l-275 474 l-80 150 l-5 0 q3 -55 6.5 -110.5 q3.5 -55.5 3.5 -112.5 l0 -401 l-78 0 l0 732 Z" /><glyph glyph-name="" unicode="o" d="M368 -13 q-68 0 -124.5 27 q-56.5 27 -97.5 76.5 q-41 49.5 -64 120 q-23 70.5 -23 158.5 q0 87 23 157 q23 70 64 118.5 q41 48.5 97.5 74.5 q56.5 26 124.5 26 q68 0 125 -26 q57 -26 98 -74.5 q41 -48.5 64 -118.5 q23 -70 23 -157 q0 -88 -23 -158.5 q-23 -70.5 -64 -120 q-41 -49.5 -98 -76.5 q-57 -27 -125 -27 ZM368 60 q51 0 92.5 22 q41.5 22 71 62 q29.5 40 45.5 97.5 q16 57.5 16 127.5 q0 70 -16 126 q-16 56 -45.5 95.5 q-29.5 39.5 -71 60.5 q-41.5 21 -92.5 21 q-51 0 -92 -21 q-41 -21 -70.5 -60.5 q-29.5 -39.5 -45.5 -95.5 q-16 -56 -16 -126 q0 -70 16 -127.5 q16 -57.5 45.5 -97.5 q29.5 -40 70.5 -62 q41 -22 92 -22 Z" /><glyph glyph-name="" unicode="p" d="M102 732 l203 0 q62 0 112 -11 q50 -11 85.5 -36 q35.5 -25 55 -65.5 q19.5 -40.5 19.5 -99.5 q0 -57 -19 -99 q-19 -42 -54.5 -70 q-35.5 -28 -85 -41.5 q-49.5 -13.5 -109.5 -13.5 l-124 0 l0 -296 l-83 0 l0 732 ZM297 364 q101 0 149.5 37 q48.5 37 48.5 119 q0 83 -50.5 114 q-50.5 31 -151.5 31 l-108 0 l0 -301 l112 0 Z" /><glyph glyph-name="" unicode="r" d="M185 384 l128 0 q89 0 136 35.5 q47 35.5 47 109.5 q0 75 -47 105.5 q-47 30.5 -136 30.5 l-128 0 l0 -281 ZM505 0 l-183 316 l-137 0 l0 -316 l-83 0 l0 732 l224 0 q56 0 102.5 -10.5 q46.5 -10.5 80 -34.5 q33.5 -24 52 -63 q18.5 -39 18.5 -95 q0 -87 -46 -137.5 q-46 -50.5 -124 -67.5 l189 -324 l-93 0 Z" /><glyph glyph-name="" unicode="s" d="M302 -13 q-78 0 -142 29 q-64 29 -112 80 l50 57 q40 -43 93 -68 q53 -25 112 -25 q75 0 118 34.5 q43 34.5 43 91.5 q0 30 -9.5 50.5 q-9.5 20.5 -26.5 35.5 q-17 15 -40 26 q-23 11 -49 23 l-106 47 q-25 11 -51.5 26.5 q-26.5 15.5 -48.5 37.5 q-22 22 -35.5 52 q-13.5 30 -13.5 70 q0 42 17 77 q17 35 47 60.5 q30 25.5 71.5 39.5 q41.5 14 90.5 14 q66 0 120.5 -25 q54.5 -25 92.5 -65 l-44 -53 q-34 32 -75 51 q-41 19 -94 19 q-64 0 -103 -30 q-39 -30 -39 -82 q0 -28 11 -48 q11 -20 29 -34.5 q18 -14.5 39.5 -25 q21.5 -10.5 42.5 -19.5 l106 -45 q32 -14 59.5 -31 q27.5 -17 48 -40 q20.5 -23 32.5 -53.5 q12 -30.5 12 -71.5 q0 -43 -17 -80.5 q-17 -37.5 -49 -65 q-32 -27.5 -77.5 -43.5 q-45.5 -16 -102.5 -16 Z" /><glyph glyph-name="" unicode="[" d="M106 789 l193 0 l0 -47 l-131 0 l0 -864 l131 0 l0 -47 l-193 0 l0 958 Z" /><glyph glyph-name="" unicode="]" d="M32 -122 l132 0 l0 864 l-132 0 l0 47 l193 0 l0 -958 l-193 0 l0 47 Z" /><glyph glyph-name="" unicode="_" d="M13 -81 l531 0 l0 -57 l-531 0 l0 57 Z" /><glyph glyph-name="" unicode="`" d="M149 809 l59 54 l155 -183 l-42 -41 l-172 170 Z" /><glyph glyph-name="" unicode="a" d="M217 -13 q-33 0 -62 10 q-29 10 -50 29.5 q-21 19.5 -33 47.5 q-12 28 -12 65 q0 89 80.5 136 q80.5 47 254.5 66 q0 27 -4.5 53.5 q-4.5 26.5 -17.5 46.5 q-13 20 -35.5 32.5 q-22.5 12.5 -57.5 12.5 q-49 0 -91 -19 q-42 -19 -73 -41 l-33 57 q18 12 40.5 24.5 q22.5 12.5 49.5 23 q27 10.5 57 17 q30 6.5 63 6.5 q49 0 84 -16 q35 -16 57 -45 q22 -29 32 -69 q10 -40 10 -89 l0 -335 l-67 0 l-7 66 l-3 0 q-39 -33 -85 -56 q-46 -23 -97 -23 ZM239 53 q42 0 78 19 q36 19 78 56 l0 158 q-72 -8 -121 -21 q-49 -13 -79 -30.5 q-30 -17.5 -43 -40 q-13 -22.5 -13 -50.5 q0 -49 29 -70 q29 -21 71 -21 Z" /><glyph glyph-name="" unicode="b" d="M326 -13 q-38 0 -79 18 q-41 18 -77 51 l-2 0 l-9 -56 l-64 0 l0 796 l81 0 l0 -221 l-4 -99 q38 32 82.5 55 q44.5 23 91.5 23 q53 0 93.5 -19.5 q40.5 -19.5 67.5 -55.5 q27 -36 41 -87 q14 -51 14 -113 q0 -69 -19.5 -123.5 q-19.5 -54.5 -52 -92 q-32.5 -37.5 -75 -57 q-42.5 -19.5 -89.5 -19.5 ZM314 56 q35 0 65 15.5 q30 15.5 52 44 q22 28.5 34 70 q12 41.5 12 92.5 q0 46 -8 84 q-8 38 -26 65.5 q-18 27.5 -46.5 42.5 q-28.5 15 -69.5 15 q-68 0 -151 -78 l0 -292 q37 -33 73.5 -46 q36.5 -13 64.5 -13 Z" /><glyph glyph-name="" unicode="c" d="M304 -13 q-53 0 -99 19 q-46 19 -79.5 55 q-33.5 36 -53 88.5 q-19.5 52.5 -19.5 119.5 q0 68 21 121 q21 53 56 89.5 q35 36.5 82 55.5 q47 19 98 19 q54 0 91.5 -19.5 q37.5 -19.5 66.5 -45.5 l-43 -54 q-24 23 -51 36.5 q-27 13.5 -61 13.5 q-38 0 -70 -15.5 q-32 -15.5 -55.5 -44 q-23.5 -28.5 -37 -68.5 q-13.5 -40 -13.5 -88 q0 -48 12.5 -87.5 q12.5 -39.5 35.5 -67.5 q23 -28 55 -43.5 q32 -15.5 71 -15.5 q38 0 71.5 16 q33.5 16 59.5 39 l36 -54 q-36 -32 -80 -50.5 q-44 -18.5 -94 -18.5 Z" /><glyph glyph-name="" unicode="d" d="M277 -13 q-103 0 -163 73 q-60 73 -60 209 q0 66 19.5 118.5 q19.5 52.5 51.5 89.5 q32 37 75 57 q43 20 89 20 q48 0 83 -17 q35 -17 72 -47 l-4 94 l0 212 l81 0 l0 -796 l-67 0 l-8 65 l-2 0 q-32 -32 -74.5 -55 q-42.5 -23 -92.5 -23 ZM294 56 q39 0 74.5 19.5 q35.5 19.5 71.5 57.5 l0 292 q-37 32 -70 46 q-33 14 -68 14 q-34 0 -64 -16 q-30 -16 -52 -44.5 q-22 -28.5 -34.5 -68 q-12.5 -39.5 -12.5 -86.5 q0 -100 40 -157 q40 -57 115 -57 Z" /><glyph glyph-name="" unicode="e" d="M309 -13 q-53 0 -100 19 q-47 19 -81.5 55.5 q-34.5 36.5 -54.5 89 q-20 52.5 -20 118.5 q0 66 20 119 q20 53 54 89.5 q34 36.5 77.5 56.5 q43.5 20 89.5 20 q102 0 157.5 -67.5 q55.5 -67.5 55.5 -185.5 q0 -14 -1 -26.5 q-1 -12.5 -3 -22.5 l-369 0 q2 -45 16 -82 q14 -37 38 -63 q24 -26 57.5 -40.5 q33.5 -14.5 73.5 -14.5 q40 0 73.5 12 q33.5 12 63.5 32 l30 -54 q-35 -23 -77.5 -39 q-42.5 -16 -99.5 -16 ZM435 311 q0 88 -37 132.5 q-37 44.5 -103 44.5 q-30 0 -57.5 -12 q-27.5 -12 -49.5 -34.5 q-22 -22.5 -36.5 -55.5 q-14.5 -33 -18.5 -75 l302 0 Z" /><glyph glyph-name="" unicode="f" d="M329 728 q-31 15 -62 15 q-78 0 -78 -110 l0 -93 l116 0 l0 -67 l-116 0 l0 -473 l-82 0 l0 473 l-74 0 l0 62 l74 5 l0 94 q0 82 37.5 128.5 q37.5 46.5 115.5 46.5 q23 0 45.5 -5 q22.5 -5 41.5 -13 l-18 -63 Z" /><glyph glyph-name="" unicode="g" d="M275 -251 q-50 0 -91 9.5 q-41 9.5 -70.5 28.5 q-29.5 19 -45.5 46 q-16 27 -16 62 q0 35 21 67 q21 32 59 57 l0 4 q-21 13 -35 35 q-14 22 -14 54 q0 34 20 59.5 q20 25.5 40 40.5 l0 4 q-26 21 -48 59 q-22 38 -22 86 q0 44 16 79.5 q16 35.5 43 61 q27 25.5 63.5 39 q36.5 13.5 77.5 13.5 q23 0 42 -4.5 q19 -4.5 33 -9.5 l187 0 l0 -63 l-114 0 q20 -20 33.5 -50 q13.5 -30 13.5 -67 q0 -43 -15 -78 q-15 -35 -41.5 -59.5 q-26.5 -24.5 -62 -38 q-35.5 -13.5 -76.5 -13.5 q-20 0 -42 5 q-22 5 -41 15 q-15 -13 -25.5 -29 q-10.5 -16 -10.5 -39 q0 -26 20 -43.5 q20 -17.5 76 -17.5 l108 0 q94 0 140 -30.5 q46 -30.5 46 -97.5 q0 -37 -19 -70.5 q-19 -33.5 -54 -59 q-35 -25.5 -84.5 -40.5 q-49.5 -15 -111.5 -15 ZM273 227 q24 0 46 9.5 q22 9.5 38.5 27 q16.5 17.5 26.5 42.5 q10 25 10 55 q0 31 -9.5 55.5 q-9.5 24.5 -26 41.5 q-16.5 17 -38.5 26 q-22 9 -47 9 q-51 0 -86 -34.5 q-35 -34.5 -35 -97.5 q0 -30 10 -55 q10 -25 26.5 -42.5 q16.5 -17.5 38.5 -27 q22 -9.5 46 -9.5 ZM286 -194 q41 0 73.5 10 q32.5 10 56 26.5 q23.5 16.5 36 37 q12.5 20.5 12.5 42.5 q0 40 -28.5 55.5 q-28.5 15.5 -84.5 15.5 l-99 0 q-13 0 -31.5 2 q-18.5 2 -37.5 7 q-31 -22 -45 -47 q-14 -25 -14 -50 q0 -45 42.5 -72 q42.5 -27 119.5 -27 Z" /><glyph glyph-name="" unicode="h" d="M95 796 l81 0 l0 -221 l-3 -113 q39 38 82 65 q43 27 99 27 q85 0 125 -53.5 q40 -53.5 40 -157.5 l0 -343 l-82 0 l0 333 q0 78 -25 114 q-25 36 -82 36 q-43 0 -77.5 -22 q-34.5 -22 -76.5 -66 l0 -395 l-81 0 l0 796 Z" /><glyph glyph-name="" unicode="i" d="M95 540 l81 0 l0 -540 l-81 0 l0 540 ZM136 656 q-26 0 -42.5 15.5 q-16.5 15.5 -16.5 39.5 q0 26 16.5 41 q16.5 15 42.5 15 q24 0 41.5 -15 q17.5 -15 17.5 -41 q0 -24 -17.5 -39.5 q-17.5 -15.5 -41.5 -15.5 Z" /><glyph glyph-name="" unicode="j" d="M35 -245 q-23 0 -43 4 q-20 4 -34 10 l16 62 q11 -3 24.5 -6.5 q13.5 -3.5 28.5 -3.5 q42 0 55 29.5 q13 29.5 13 79.5 l0 610 l81 0 l0 -611 q0 -82 -32.5 -128 q-32.5 -46 -108.5 -46 ZM136 656 q-25 0 -41.5 15.5 q-16.5 15.5 -16.5 39.5 q0 26 16.5 41 q16.5 15 41.5 15 q25 0 42 -15 q17 -15 17 -41 q0 -24 -17 -39.5 q-17 -15.5 -42 -15.5 Z" /><glyph glyph-name="" unicode="k" d="M95 796 l79 0 l0 -551 l3 0 l240 295 l90 0 l-180 -216 l205 -324 l-89 0 l-163 267 l-106 -124 l0 -143 l-79 0 l0 796 Z" /><glyph glyph-name="" unicode="l" d="M183 -13 q-47 0 -67.5 29 q-20.5 29 -20.5 83 l0 697 l81 0 l0 -703 q0 -20 7 -29 q7 -9 18 -9 q4 0 7.5 0 q3.5 0 11.5 2 l12 -63 q-10 -3 -21 -5 q-11 -2 -28 -2 Z" /><glyph glyph-name="" unicode="m" d="M95 540 l66 0 l8 -80 l3 0 q35 39 77.5 66.5 q42.5 27.5 90.5 27.5 q63 0 98 -28.5 q35 -28.5 51 -76.5 q44 47 87.5 76 q43.5 29 92.5 29 q83 0 123.5 -53.5 q40.5 -53.5 40.5 -157.5 l0 -343 l-82 0 l0 333 q0 78 -25.5 114 q-25.5 36 -79.5 36 q-64 0 -142 -88 l0 -395 l-81 0 l0 333 q0 78 -25.5 114 q-25.5 36 -80.5 36 q-65 0 -141 -88 l0 -395 l-81 0 l0 540 Z" /><glyph glyph-name="" unicode="n" d="M95 540 l66 0 l8 -79 l3 0 q39 38 82.5 65.5 q43.5 27.5 99.5 27.5 q85 0 125 -53.5 q40 -53.5 40 -157.5 l0 -343 l-82 0 l0 333 q0 78 -25 114 q-25 36 -82 36 q-43 0 -77.5 -22 q-34.5 -22 -76.5 -66 l0 -395 l-81 0 l0 540 Z" /><glyph glyph-name="" unicode="o" d="M301 -13 q-49 0 -94 19 q-45 19 -79.5 55 q-34.5 36 -54.5 88.5 q-20 52.5 -20 119.5 q0 68 20 121 q20 53 54.5 89.5 q34.5 36.5 79.5 55.5 q45 19 94 19 q50 0 95 -19 q45 -19 79 -55.5 q34 -36.5 54.5 -89.5 q20.5 -53 20.5 -121 q0 -67 -20.5 -119.5 q-20.5 -52.5 -54.5 -88.5 q-34 -36 -79 -55 q-45 -19 -95 -19 ZM301 55 q36 0 66.5 15.5 q30.5 15.5 52.5 43.5 q22 28 34 67.5 q12 39.5 12 87.5 q0 48 -12 88 q-12 40 -34 68.5 q-22 28.5 -52.5 44 q-30.5 15.5 -66.5 15.5 q-36 0 -66.5 -15.5 q-30.5 -15.5 -52 -44 q-21.5 -28.5 -33.5 -68.5 q-12 -40 -12 -88 q0 -48 12 -87.5 q12 -39.5 33.5 -67.5 q21.5 -28 52 -43.5 q30.5 -15.5 66.5 -15.5 Z" /><glyph glyph-name="" unicode="p" d="M95 540 l66 0 l8 -63 l3 0 q38 30 82 53.5 q44 23.5 92 23.5 q53 0 93.5 -19.5 q40.5 -19.5 67.5 -55.5 q27 -36 41 -87 q14 -51 14 -113 q0 -69 -19.5 -123.5 q-19.5 -54.5 -52 -92 q-32.5 -37.5 -75 -57 q-42.5 -19.5 -89.5 -19.5 q-38 0 -76 16.5 q-38 16.5 -76 46.5 l2 -95 l0 -187 l-81 0 l0 772 ZM314 56 q35 0 65 15.5 q30 15.5 52 44 q22 28.5 34 70 q12 41.5 12 92.5 q0 46 -8 84 q-8 38 -26 65.5 q-18 27.5 -46.5 42.5 q-28.5 15 -69.5 15 q-35 0 -72 -20 q-37 -20 -79 -58 l0 -292 q38 -33 74 -46 q36 -13 64 -13 Z" /><glyph glyph-name="" unicode="q" d="M440 -36 l4 101 q-34 -33 -76 -55.5 q-42 -22.5 -91 -22.5 q-103 0 -163 73 q-60 73 -60 209 q0 66 19.5 118.5 q19.5 52.5 51.5 89.5 q32 37 75 57 q43 20 89 20 q48 0 84 -17 q36 -17 72 -48 l3 0 l8 51 l65 0 l0 -772 l-81 0 l0 196 ZM294 56 q39 0 74.5 19.5 q35.5 19.5 71.5 57.5 l0 292 q-37 32 -70 46 q-33 14 -68 14 q-34 0 -64 -16 q-30 -16 -52 -44.5 q-22 -28.5 -34.5 -68 q-12.5 -39.5 -12.5 -86.5 q0 -100 40 -157 q40 -57 115 -57 Z" /><glyph glyph-name="" unicode="r" d="M95 540 l66 0 l8 -99 l3 0 q28 51 67.5 82 q39.5 31 85.5 31 q17 0 30 -2.5 q13 -2.5 27 -9.5 l-16 -71 q-14 5 -24.5 7 q-10.5 2 -26.5 2 q-35 0 -73 -28.5 q-38 -28.5 -66 -99.5 l0 -352 l-81 0 l0 540 Z" /><glyph glyph-name="" unicode="s" d="M233 -13 q-58 0 -110.5 21 q-52.5 21 -90.5 53 l41 55 q35 -29 73.5 -47 q38.5 -18 89.5 -18 q57 0 84.5 26 q27.5 26 27.5 64 q0 22 -11 38 q-11 16 -29 28.5 q-18 12.5 -40.5 22 q-22.5 9.5 -45.5 17.5 q-29 11 -58 23.5 q-29 12.5 -52.5 30.5 q-23.5 18 -38 43 q-14.5 25 -14.5 59 q0 32 12.5 59.5 q12.5 27.5 35.5 47.5 q23 20 57.5 32 q34.5 12 77.5 12 q48 0 90.5 -17.5 q42.5 -17.5 73.5 -42.5 l-39 -53 q-28 20 -58 34 q-30 14 -67 14 q-54 0 -79.5 -24.5 q-25.5 -24.5 -25.5 -57.5 q0 -20 10.5 -34.5 q10.5 -14.5 27.5 -26 q17 -11.5 39 -20 q22 -8.5 45 -16.5 q30 -12 59.5 -24.5 q29.5 -12.5 53.5 -31 q24 -18.5 39 -44.5 q15 -26 15 -65 q0 -32 -12.5 -61 q-12.5 -29 -37 -50.5 q-24.5 -21.5 -60.5 -34 q-36 -12.5 -83 -12.5 Z" /><glyph glyph-name="" unicode="t" d="M259 -13 q-42 0 -71 12.5 q-29 12.5 -46 35.5 q-17 23 -24.5 55.5 q-7.5 32.5 -7.5 72.5 l0 310 l-82 0 l0 62 l85 5 l9 153 l69 0 l0 -153 l149 0 l0 -67 l-149 0 l0 -313 q0 -50 18 -78 q18 -28 67 -28 q15 0 32 4.5 q17 4.5 31 9.5 l16 -61 q-23 -8 -48 -14 q-25 -6 -48 -6 Z" /><glyph glyph-name="" unicode="u" d="M251 -13 q-85 0 -124.5 53 q-39.5 53 -39.5 157 l0 343 l81 0 l0 -333 q0 -78 25 -113.5 q25 -35.5 82 -35.5 q43 0 77 22.5 q34 22.5 75 72.5 l0 387 l81 0 l0 -540 l-67 0 l-7 86 l-3 0 q-38 -45 -80.5 -72 q-42.5 -27 -99.5 -27 Z" /><glyph glyph-name="" unicode="v" d="M13 540 l85 0 l107 -314 q12 -40 25 -80.5 q13 -40.5 26 -78.5 l4 0 q12 38 25.5 78.5 q13.5 40.5 25.5 80.5 l107 314 l80 0 l-193 -540 l-95 0 l-197 540 Z" /><glyph glyph-name="" unicode="w" d="M27 540 l83 0 l85 -321 q9 -38 17 -74.5 q8 -36.5 16 -74.5 l4 0 q10 38 18.5 74.5 q8.5 36.5 19.5 74.5 l87 321 l82 0 l88 -321 q10 -38 19 -74.5 q9 -36.5 19 -74.5 l4 0 q9 38 17 74.5 q8 36.5 18 74.5 l83 321 l78 0 l-148 -540 l-99 0 l-82 301 q-11 39 -19.5 76.5 q-8.5 37.5 -18.5 79.5 l-5 0 q-9 -42 -18 -80.5 q-9 -38.5 -21 -76.5 l-79 -300 l-96 0 l-152 540 Z" /><glyph glyph-name="" unicode="x" d="M194 282 l-165 258 l88 0 l76 -123 q13 -23 27 -45 q14 -22 28 -45 l4 0 q13 23 25 45 q12 22 25 45 l71 123 l84 0 l-164 -266 l178 -274 l-89 0 l-83 131 q-14 25 -29 49.5 q-15 24.5 -30 48.5 l-5 0 q-15 -24 -29 -48.5 q-14 -24.5 -28 -49.5 l-77 -131 l-86 0 l179 282 Z" /><glyph glyph-name="" unicode="y" d="M96 -236 q-35 0 -62 11 l17 66 q8 -3 19.5 -5.5 q11.5 -2.5 22.5 -2.5 q47 0 77.5 34.5 q30.5 34.5 48.5 87.5 l12 42 l-218 543 l85 0 l115 -309 q13 -35 26.5 -75 q13.5 -40 27.5 -77 l5 0 q11 37 23 77 q12 40 23 75 l101 309 l80 0 l-206 -590 q-13 -39 -31 -72.5 q-18 -33.5 -41.5 -59 q-23.5 -25.5 -54.5 -40 q-31 -14.5 -70 -14.5 Z" /><glyph glyph-name="" unicode="z" d="M34 44 l292 429 l-260 0 l0 67 l364 0 l0 -43 l-293 -430 l302 0 l0 -67 l-405 0 l0 44 Z" /><glyph glyph-name="" unicode="&#x2eda;&#x9875;" d="M468 464 l68 0 l0 -181 q0 -51 -14 -101.5 q-14 -50.5 -60.5 -97 q-46.5 -46.5 -133.5 -87.5 q-87 -41 -234 -73 q-5 11 -17 27.5 q-12 16.5 -23 27.5 q140 28 222.5 64 q82.5 36 125 76 q42.5 40 54.5 82 q12 42 12 83 l0 180 ZM585 159 q42 -19 90 -42.5 q48 -23.5 94 -48 q46 -24.5 86.5 -49 q40.5 -24.5 68.5 -45.5 l-41 -53 q-27 21 -67 46.5 q-40 25.5 -85.5 51.5 q-45.5 26 -93 50.5 q-47.5 24.5 -90.5 44.5 l38 45 ZM931 780 l0 -63 l-399 0 q-14 -32 -28.5 -64.5 q-14.5 -32.5 -29.5 -59.5 l357 0 l0 -464 l-70 0 l0 402 l-517 0 l0 -403 l-67 0 l0 465 l229 0 q14 28 27 61 q13 33 23 63 l-379 0 l0 63 l854 0 Z" /><glyph glyph-name="" unicode="&#x2f00;&#x4e00;" d="M956 426 l0 -72 l-908 0 l0 72 l908 0 Z" /><glyph glyph-name="" unicode="&#x2f06;&#x4e8c;" d="M857 692 l0 -71 l-713 0 l0 71 l713 0 ZM941 100 l0 -73 l-881 0 l0 73 l881 0 Z" /><glyph glyph-name="" unicode="&#x2f08;&#x4eba;" d="M538 832 q-1 -26 -2 -62.5 q-1 -36.5 -5 -81.5 q4 -29 12.5 -81 q8.5 -52 27 -117 q18.5 -65 48.5 -136.5 q30 -71.5 76.5 -139.5 q46.5 -68 111.5 -127.5 q65 -59.5 153 -98.5 q-14 -11 -27 -26.5 q-13 -15.5 -21 -29.5 q-96 45 -165.5 113 q-69.5 68 -118 145.5 q-48.5 77.5 -78.5 158 q-30 80.5 -48 150.5 q-16 -76 -45.5 -156.5 q-29.5 -80.5 -77 -156 q-47.5 -75.5 -115.5 -142 q-68 -66.5 -163 -115.5 q-8 13 -23 26.5 q-15 13.5 -29 24.5 q104 52 175 125 q71 73 117 155 q46 82 71 167.5 q25 85.5 36.5 163 q11.5 77.5 13.5 140.5 q2 63 3 101 l73 0 Z" /><glyph glyph-name="" unicode="&#x2f0a;&#x5165;" d="M341 811 q80 -56 133 -124 q53 -68 94 -141 q41 -73 76 -147.5 q35 -74.5 77 -145 q42 -70.5 98 -133.5 q56 -63 139 -112 q-9 -13 -19.5 -35.5 q-10.5 -22.5 -13.5 -37.5 q-87 49 -146 115 q-59 66 -104 141.5 q-45 75.5 -82 155 q-37 79.5 -79 155.5 q-56 -199 -155 -340 q-99 -141 -253 -232 q-9 11 -27.5 27.5 q-18.5 16.5 -32.5 25.5 q169 89 267.5 241 q98.5 152 146.5 367 q-32 47 -70.5 88 q-38.5 41 -88.5 76 l40 56 Z" /><glyph glyph-name="" unicode="&#x2f2f;&#x5de5;" d="M947 69 l0 -67 l-891 0 l0 67 l406 0 l0 584 l-355 0 l0 68 l791 0 l0 -68 l-363 0 l0 -584 l412 0 Z" /><glyph glyph-name="" unicode="&#x2f3e;&#x6237;" d="M772 411 l0 207 l-528 0 l0 -152 q0 -14 0 -27.5 q0 -13.5 -1 -27.5 l529 0 ZM839 681 l0 -400 l-67 0 l0 68 l-532 0 q-4 -54 -13 -111 q-9 -57 -26 -112.5 q-17 -55.5 -42.5 -108 q-25.5 -52.5 -63.5 -97.5 q-9 9 -27.5 21.5 q-18.5 12.5 -29.5 17.5 q46 56 73 121 q27 65 41.5 132 q14.5 67 18.5 132 q4 65 4 122 l0 215 l326 0 q-9 29 -25 69 q-16 40 -31 73 l63 17 q18 -35 35 -76 q17 -41 26 -70 l-43 -13 l313 0 Z" /><glyph glyph-name="" unicode="&#x2f40;&#x652f;" d="M280 389 q78 -146 224 -243 q75 47 134 106.5 q59 59.5 99 136.5 l-457 0 ZM833 428 q-44 -103 -111.5 -181 q-67.5 -78 -155.5 -137 q169 -88 395 -118 q-11 -12 -22.5 -30.5 q-11.5 -18.5 -18.5 -32.5 q-245 38 -419 141 q-94 -54 -200.5 -88.5 q-106.5 -34.5 -221.5 -57.5 q-5 14 -16.5 33 q-11.5 19 -20.5 30 q109 18 209.5 48 q100.5 30 188.5 76 q-146 105 -228 271 l19 7 l-105 0 l0 65 l339 0 l0 160 l-384 0 l0 65 l384 0 l0 156 l68 0 l0 -156 l384 0 l0 -65 l-384 0 l0 -160 l242 0 l13 2 l45 -28 Z" /><glyph glyph-name="" unicode="&#x2f42;&#x6587;" d="M501 664 q-4 15 -12.5 34.5 q-8.5 19.5 -18.5 40.5 q-10 21 -21.5 42 q-11.5 21 -23.5 39 l68 20 q23 -35 46 -78 q23 -43 34 -75 l-72 -23 ZM276 593 q41 -100 97 -186.5 q56 -86.5 129 -159.5 q69 69 122 155 q53 86 92 191 l-440 0 ZM791 593 q-44 -121 -103 -217.5 q-59 -96.5 -137 -174.5 q85 -73 187 -126 q102 -53 223 -84 q-11 -11 -24 -28.5 q-13 -17.5 -21 -31.5 q-124 34 -227 90 q-103 56 -188 132 q-85 -75 -188.5 -130 q-103.5 -55 -230.5 -96 q-5 11 -17.5 30.5 q-12.5 19.5 -23.5 30.5 q126 37 227.5 89 q101.5 52 184.5 123 q-79 81 -139.5 179.5 q-60.5 98.5 -104.5 213.5 l-155 0 l0 65 l895 0 l0 -65 l-158 0 Z" /><glyph glyph-name="" unicode="&#x2f64;&#x7528;" d="M816 295 l0 175 l-279 0 l0 -175 l279 0 ZM471 295 l0 175 l-248 0 l0 -66 q0 -26 -1 -53 q-1 -27 -3 -56 l252 0 ZM223 701 l0 -169 l248 0 l0 169 l-248 0 ZM816 701 l-279 0 l0 -169 l279 0 l0 169 ZM882 19 q0 -35 -10.5 -52.5 q-10.5 -17.5 -33.5 -25.5 q-25 -9 -69.5 -10.5 q-44.5 -1.5 -115.5 -0.5 q-2 13 -8.5 31.5 q-6.5 18.5 -14.5 32.5 q54 -2 99.5 -2 q45.5 0 60.5 1 q14 1 20 6.5 q6 5.5 6 19.5 l0 213 l-279 0 l0 -299 l-66 0 l0 299 l-258 0 q-11 -85 -39 -166 q-28 -81 -87 -147 q-7 10 -23 24 q-16 14 -27 20 q41 47 65 101.5 q24 54.5 36.5 112.5 q12.5 58 16 116 q3.5 58 3.5 111 l0 360 l724 0 l0 -745 Z" /><glyph glyph-name="" unicode="&#x2f6c;&#x76ee;" d="M763 63 l0 174 l-533 0 l0 -174 l533 0 ZM230 473 l0 -173 l533 0 l0 173 l-533 0 ZM230 707 l0 -171 l533 0 l0 171 l-533 0 ZM832 772 l0 -843 l-69 0 l0 69 l-533 0 l0 -69 l-67 0 l0 843 l669 0 Z" /><glyph glyph-name="" unicode="&#x2f83;&#x81ea;" d="M778 43 l0 156 l-542 0 l0 -156 l542 0 ZM236 415 l0 -154 l542 0 l0 154 l-542 0 ZM236 635 l0 -158 l542 0 l0 158 l-542 0 ZM847 699 l0 -771 l-69 0 l0 52 l-542 0 l0 -57 l-67 0 l0 776 l250 0 q13 32 24 70 q11 38 18 68 l75 -11 q-11 -32 -24 -65 q-13 -33 -26 -62 l361 0 Z" /><glyph glyph-name="" unicode="&#x2f8f;&#x884c;&#xfa08;" d="M922 712 l-489 0 l0 62 l489 0 l0 -62 ZM334 811 q-24 -33 -54.5 -66.5 q-30.5 -33.5 -64 -65 q-33.5 -31.5 -68.5 -60.5 q-35 -29 -68 -53 q-7 11 -18.5 27 q-11.5 16 -20.5 26 q31 21 64 47 q33 26 63.5 55 q30.5 29 57 58.5 q26.5 29.5 45.5 56.5 l64 -25 ZM374 600 q-24 -39 -52.5 -77 q-28.5 -38 -59.5 -75 l0 -526 l-66 0 l0 453 q-30 -31 -60 -58.5 q-30 -27.5 -59 -50.5 q-8 10 -22.5 27.5 q-14.5 17.5 -24.5 27.5 q38 27 77 62 q39 35 76 74 q37 39 69.5 81.5 q32.5 42.5 58.5 84.5 l63 -23 ZM951 437 l-153 0 l0 -425 q0 -32 -9.5 -49 q-9.5 -17 -32.5 -25 q-25 -8 -68.5 -9 q-43.5 -1 -118.5 -1 q-2 14 -8 32 q-6 18 -14 32 q56 -2 100.5 -2.5 q44.5 -0.5 58.5 1.5 q14 0 19.5 4.5 q5.5 4.5 5.5 17.5 l0 424 l-341 0 l0 64 l561 0 l0 -64 Z" /><glyph glyph-name="" unicode="&#x2fb8;&#x9996;" d="M760 478 l-521 0 l0 -106 l521 0 l0 106 ZM760 43 l0 112 l-521 0 l0 -112 l521 0 ZM760 318 l-521 0 l0 -109 l521 0 l0 109 ZM540 635 q-8 -25 -16.5 -50.5 q-8.5 -25.5 -16.5 -47.5 l321 0 l0 -613 l-68 0 l0 59 l-521 0 l0 -59 l-65 0 l0 613 l263 0 q8 23 14.5 49 q6.5 26 11.5 49 l-407 0 l0 62 l264 0 q-14 26 -38.5 58 q-24.5 32 -47.5 59 l57 25 q28 -27 54 -60 q26 -33 40 -59 l-43 -23 l271 0 q24 30 50 69 q26 39 43 71 l73 -20 q-22 -32 -45.5 -63 q-23.5 -31 -46.5 -57 l259 0 l0 -62 l-406 0 Z" /><glyph glyph-name="" unicode="&#x3001;" d="M276 -53 q-49 60 -108.5 119.5 q-59.5 59.5 -113.5 102.5 l58 52 q27 -22 56.5 -49 q29.5 -27 59 -56 q29.5 -29 57.5 -59.5 q28 -30.5 52 -58.5 l-61 -51 Z" /><glyph glyph-name="" unicode="&#x3002;" d="M194 243 q32 0 59.5 -12 q27.5 -12 47.5 -32 q20 -20 32 -47.5 q12 -27.5 12 -58.5 q0 -31 -12 -59 q-12 -28 -32 -48 q-20 -20 -47.5 -32 q-27.5 -12 -59.5 -12 q-31 0 -58 12 q-27 12 -47.5 32 q-20.5 20 -32.5 48 q-12 28 -12 59 q0 31 12 58.5 q12 27.5 32.5 47.5 q20.5 20 47.5 32 q27 12 58 12 ZM194 -11 q22 0 41 8 q19 8 33 22 q14 14 22 33 q8 19 8 41 q0 21 -8 39.5 q-8 18.5 -22 33 q-14 14.5 -33 22.5 q-19 8 -41 8 q-21 0 -39.5 -8 q-18.5 -8 -33 -22.5 q-14.5 -14.5 -22.5 -33 q-8 -18.5 -8 -39.5 q0 -22 8 -41 q8 -19 22.5 -33 q14.5 -14 33 -22 q18.5 -8 39.5 -8 Z" /><glyph glyph-name="" unicode="&#x4e0a;" d="M946 38 l0 -66 l-891 0 l0 66 l377 0 l0 781 l69 0 l0 -309 l377 0 l0 -67 l-377 0 l0 -405 l445 0 Z" /><glyph glyph-name="" unicode="&#x4e0b;" d="M516 696 l0 -181 l11 13 q46 -22 96.5 -49 q50.5 -27 99 -55 q48.5 -28 91 -55 q42.5 -27 72.5 -50 l-46 -60 q-26 21 -63.5 47 q-37.5 26 -81 52.5 q-43.5 26.5 -89.5 53 q-46 26.5 -90 49.5 l0 -535 l-70 0 l0 770 l-387 0 l0 66 l883 0 l0 -66 l-426 0 Z" /><glyph glyph-name="" unicode="&#x4e0d;&#xf967;" d="M608 697 q-17 -29 -35 -56.5 q-18 -27.5 -38 -56.5 l0 -658 l-71 0 l0 569 q-77 -89 -170 -165.5 q-93 -76.5 -199 -133.5 q-8 12 -21.5 29 q-13.5 17 -24.5 28 q75 38 144.5 87.5 q69.5 49.5 130 107 q60.5 57.5 111.5 121 q51 63.5 89 128.5 l-451 0 l0 67 l855 0 l0 -67 l-320 0 ZM610 525 q45 -28 94 -62 q49 -34 95.5 -69.5 q46.5 -35.5 87 -69 q40.5 -33.5 67.5 -62.5 l-52 -50 q-27 28 -66.5 63 q-39.5 35 -85.5 71 q-46 36 -95 71.5 q-49 35.5 -94 64.5 l49 43 Z" /><glyph glyph-name="" unicode="&#x4e2a;" d="M466 547 l68 0 l0 -622 l-68 0 l0 622 ZM566 808 q-6 -11 -12.5 -21.5 q-6.5 -10.5 -13.5 -21.5 q91 -113 197 -191 q106 -78 227 -138 q-13 -11 -26.5 -27.5 q-13.5 -16.5 -21.5 -31.5 q-58 32 -112.5 66.5 q-54.5 34.5 -105.5 75 q-51 40.5 -100 88.5 q-49 48 -97 106 q-81 -106 -187.5 -191.5 q-106.5 -85.5 -223.5 -142.5 q-9 14 -22 30.5 q-13 16.5 -27 27.5 q70 32 137.5 74.5 q67.5 42.5 128.5 93.5 q61 51 112.5 109.5 q51.5 58.5 88.5 120.5 l58 -27 Z" /><glyph glyph-name="" unicode="&#x4e2d;" d="M829 318 l0 274 l-297 0 l0 -274 l297 0 ZM463 318 l0 274 l-296 0 l0 -274 l296 0 ZM897 657 l0 -463 l-68 0 l0 58 l-297 0 l0 -326 l-69 0 l0 326 l-296 0 l0 -63 l-66 0 l0 468 l362 0 l0 179 l69 0 l0 -179 l365 0 Z" /><glyph glyph-name="" unicode="&#x4e3b;" d="M945 23 l0 -65 l-885 0 l0 65 l405 0 l0 255 l-314 0 l0 64 l314 0 l0 228 l-358 0 l0 64 l448 0 q-15 18 -35.5 38.5 q-20.5 20.5 -43.5 41.5 q-23 21 -48 41.5 q-25 20.5 -48 38.5 l54 37 q24 -18 50.5 -39 q26.5 -21 51 -42.5 q24.5 -21.5 45.5 -42.5 q21 -21 35 -39 l-47 -34 l326 0 l0 -64 l-360 0 l0 -228 l319 0 l0 -64 l-319 0 l0 -255 l410 0 Z" /><glyph glyph-name="" unicode="&#x4ea4;" d="M928 631 l-857 0 l0 65 l419 0 q-10 26 -29 61.5 q-19 35.5 -39 64.5 l61 22 q22 -29 43 -65.5 q21 -36.5 31 -62.5 l-50 -20 l421 0 l0 -65 ZM673 596 q35 -23 72 -51 q37 -28 71.5 -57 q34.5 -29 64.5 -57 q30 -28 50 -52 l-55 -43 q-19 24 -48 52.5 q-29 28.5 -63 58.5 q-34 30 -71 58.5 q-37 28.5 -72 52.5 l51 38 ZM387 571 q-25 -32 -56.5 -64 q-31.5 -32 -65.5 -62 q-34 -30 -69.5 -57 q-35.5 -27 -68.5 -48 q-8 10 -24 25.5 q-16 15.5 -27 24.5 q33 19 67.5 42.5 q34.5 23.5 67 50.5 q32.5 27 61.5 55.5 q29 28.5 52 57.5 l63 -25 ZM721 409 q-31 -78 -72.5 -141.5 q-41.5 -63.5 -95.5 -114.5 q154 -120 401 -161 q-11 -11 -22.5 -29 q-11.5 -18 -18.5 -32 q-126 24 -227.5 68 q-101.5 44 -182.5 110 q-83 -66 -186 -111 q-103 -45 -227 -77 q-5 12 -17.5 31 q-12.5 19 -22.5 30 q123 26 224 67 q101 41 181 104 q-104 101 -165 250 l60 19 q53 -134 154 -227 q49 48 86.5 105 q37.5 57 63.5 128 l67 -19 Z" /><glyph glyph-name="" unicode="&#x4ed3;" d="M562 808 q-5 -8 -11 -17 q-6 -9 -12 -17 q88 -107 195.5 -181 q107.5 -74 231.5 -132 q-14 -10 -26 -26 q-12 -16 -19 -30 q-121 62 -224.5 137.5 q-103.5 75.5 -193.5 182.5 q-55 -69 -122.5 -130.5 q-67.5 -61.5 -142.5 -113.5 l523 0 q0 -6 -1 -12 q0 -5 -0.5 -10 q-0.5 -5 -0.5 -9 q-3 -65 -6.5 -111 q-3.5 -46 -8 -77 q-4.5 -31 -10 -49 q-5.5 -18 -13.5 -27 q-12 -14 -27.5 -19 q-15.5 -5 -37.5 -7 q-21 -2 -58 -1.5 q-37 0.5 -78 3.5 q-1 14 -5.5 30 q-4.5 16 -11.5 29 q42 -4 77.5 -5 q35.5 -1 48.5 -1 q26 0 36 10 q9 11 15.5 54.5 q6.5 43.5 10.5 138.5 l-388 0 l0 -345 q0 -17 4 -28 q4 -11 14.5 -17 q10.5 -6 30.5 -8.5 q20 -2.5 51 -2.5 l296 0 q29 0 46 6 q17 6 27 22.5 q10 16.5 15 46.5 q5 30 8 78 q13 -9 32 -16.5 q19 -7.5 35 -9.5 q-5 -57 -14 -94.5 q-9 -37.5 -26 -59 q-17 -21.5 -46 -30.5 q-29 -9 -75 -9 l-298 0 q-49 0 -81.5 5.5 q-32.5 5.5 -52 19 q-19.5 13.5 -27.5 37 q-8 23.5 -8 60.5 l0 405 q-37 -24 -74.5 -46 q-37.5 -22 -75.5 -40 q-8 12 -21 28.5 q-13 16.5 -27 27.5 q69 31 136.5 72.5 q67.5 41.5 128 91.5 q60.5 50 111.5 107 q51 57 88 117 l62 -28 Z" /><glyph glyph-name="" unicode="&#x4ee3;" d="M879 615 q-13 17 -32 38 q-19 21 -41 43 q-22 22 -46 44 q-24 22 -47 40 l48 31 q23 -18 47 -38.5 q24 -20.5 46.5 -41.5 q22.5 -21 42.5 -41.5 q20 -20.5 33 -37.5 l-51 -37 ZM382 805 q-23 -54 -50.5 -105.5 q-27.5 -51.5 -59.5 -99.5 l0 -673 l-67 0 l0 578 q-33 -44 -68.5 -82.5 q-35.5 -38.5 -71.5 -70.5 q-5 11 -17.5 31.5 q-12.5 20.5 -21.5 31.5 q44 37 85.5 83 q41.5 46 79.5 98.5 q38 52.5 71 110.5 q33 58 58 118 l62 -20 ZM644 469 q14 -102 33.5 -186 q19.5 -84 46 -145 q26.5 -61 60.5 -96.5 q34 -35.5 76 -38.5 q40 -3 57 175 q10 -10 27 -19.5 q17 -9.5 28 -14.5 q-8 -63 -19 -105.5 q-11 -42.5 -24.5 -68 q-13.5 -25.5 -30 -36 q-16.5 -10.5 -36.5 -9.5 q-62 4 -108 44.5 q-46 40.5 -80 110.5 q-34 70 -56.5 167 q-22.5 97 -37.5 215 l-248 -32 l-10 63 l250 31 q-7 69 -12 143.5 q-5 74.5 -9 153.5 l67 0 q2 -77 7 -149.5 q5 -72.5 12 -139.5 l303 37 l10 -61 l-306 -39 Z" /><glyph glyph-name="" unicode="&#x4ee4;" d="M847 349 q-28 -30 -61.5 -64.5 q-33.5 -34.5 -70.5 -71.5 q-37 -37 -75 -74.5 q-38 -37.5 -74 -73.5 q33 -25 62 -48 q29 -23 51 -43 l-51 -54 q-25 25 -62 55.5 q-37 30.5 -80 62 q-43 31.5 -88 62.5 q-45 31 -86 56 l47 46 q36 -21 75.5 -46.5 q39.5 -25.5 77.5 -52.5 q54 52 109 106.5 q55 54.5 100 101.5 l-550 0 l0 64 l616 0 l11 4 l49 -30 ZM555 406 q-11 17 -28.5 37 q-17.5 20 -38 41 q-20.5 21 -42.5 41 q-22 20 -43 37 l48 37 q21 -16 43.5 -35.5 q22.5 -19.5 43.5 -40 q21 -20.5 38.5 -39.5 q17.5 -19 29.5 -36 l-51 -42 ZM570 806 q-7 -8 -13 -16.5 q-6 -8.5 -13 -16.5 q39 -42 90 -83.5 q51 -41.5 107.5 -79 q56.5 -37.5 115 -68.5 q58.5 -31 111.5 -52 q-13 -11 -27 -28.5 q-14 -17.5 -22 -31.5 q-51 23 -106.5 56 q-55.5 33 -110 71.5 q-54.5 38.5 -105.5 82 q-51 43.5 -93 87.5 q-85 -91 -193.5 -168.5 q-108.5 -77.5 -222.5 -129.5 q-8 12 -21 27 q-13 15 -27 27 q68 29 135.5 68 q67.5 39 129 85 q61.5 46 114 97.5 q52.5 51.5 91.5 104.5 l60 -32 Z" /><glyph glyph-name="" unicode="&#x4ee5;" d="M528 476 q-10 24 -26.5 54 q-16.5 30 -36.5 61.5 q-20 31.5 -42.5 63.5 q-22.5 32 -43.5 59 l55 29 q23 -27 45.5 -57.5 q22.5 -30.5 43 -61 q20.5 -30.5 37.5 -60 q17 -29.5 28 -53.5 l-60 -35 ZM475 266 q2 -14 7.5 -32.5 q5.5 -18.5 9.5 -29.5 q-108 -51 -172.5 -82 q-64.5 -31 -100 -49.5 q-35.5 -18.5 -50.5 -28 q-15 -9.5 -24 -17.5 q-5 11 -16.5 28.5 q-11.5 17.5 -20.5 26.5 q8 4 17.5 12 q9.5 8 18.5 19 q9 11 15 25 q6 14 6 31 l0 587 l71 0 l0 -600 l239 110 ZM833 793 q-11 -180 -34.5 -318.5 q-23.5 -138.5 -74.5 -245.5 q33 -31 67.5 -65.5 q34.5 -34.5 66 -69 q31.5 -34.5 58 -66.5 q26.5 -32 44.5 -59 l-57 -43 q-16 24 -39 54 q-23 30 -50.5 62 q-27.5 32 -58 65 q-30.5 33 -61.5 63 q-50 -81 -122 -142.5 q-72 -61.5 -177 -109.5 q-6 11 -21.5 28.5 q-15.5 17.5 -27.5 28.5 q121 48 198 119.5 q77 71.5 123 171.5 q46 100 66.5 231.5 q20.5 131.5 29.5 299.5 l70 -4 Z" /><glyph glyph-name="" unicode="&#x4ef6;" d="M337 813 q-21 -56 -46 -111 q-25 -55 -54 -107 l0 -669 l-63 0 l0 566 q-23 -35 -48 -66.5 q-25 -31.5 -50 -59.5 q-5 12 -17 32.5 q-12 20.5 -21 32.5 q35 36 69 82 q34 46 64.5 97.5 q30.5 51.5 56.5 108 q26 56.5 46 113.5 l63 -19 ZM947 272 l-274 0 l0 -348 l-66 0 l0 348 l-289 0 l0 64 l289 0 l0 229 l-164 0 q-32 -92 -74 -156 q-10 7 -27 17.5 q-17 10.5 -30 16.5 q45 63 75.5 153.5 q30.5 90.5 47.5 189.5 l63 -12 q-7 -38 -15.5 -74 q-8.5 -36 -19.5 -71 l144 0 l0 194 l66 0 l0 -194 l231 0 l0 -64 l-231 0 l0 -229 l274 0 l0 -64 Z" /><glyph glyph-name="" unicode="&#x4f18;" d="M833 624 q-10 16 -25.5 35 q-15.5 19 -33.5 39.5 q-18 20.5 -38 40.5 q-20 20 -38 37 l46 33 q18 -16 38 -35.5 q20 -19.5 38.5 -39.5 q18.5 -20 34.5 -38.5 q16 -18.5 27 -33.5 l-49 -38 ZM340 815 q-21 -60 -47.5 -117.5 q-26.5 -57.5 -57.5 -112.5 l0 -660 l-63 0 l0 559 q-42 -63 -90 -115 q-5 11 -17.5 31.5 q-12.5 20.5 -21.5 31.5 q35 37 69 82.5 q34 45.5 64 97.5 q30 52 56.5 108 q26.5 56 46.5 113 l61 -18 ZM848 14 q11 0 18 5.5 q7 5.5 11.5 22 q4.5 16.5 6.5 46.5 q2 30 3 79 q11 -8 28.5 -16 q17.5 -8 30.5 -12 q-2 -55 -7 -91 q-5 -36 -15.5 -57.5 q-10.5 -21.5 -27.5 -30 q-17 -8.5 -43 -8.5 l-120 0 q-28 0 -46 4.5 q-18 4.5 -28.5 16 q-10.5 11.5 -15 30.5 q-4.5 19 -4.5 47 l0 404 l65 0 l0 -404 q0 -23 6.5 -29.5 q6.5 -6.5 29.5 -6.5 l108 0 ZM946 598 l0 -63 l-363 0 q-7 -92 -22 -179.5 q-15 -87.5 -44 -165.5 q-29 -78 -74.5 -144.5 q-45.5 -66.5 -113.5 -115.5 q-8 12 -22 25.5 q-14 13.5 -27 21.5 q64 45 107 106 q43 61 70 133 q27 72 40.5 153 q13.5 81 19.5 166 l-225 0 l0 63 l229 0 q2 57 3 113.5 q1 56.5 1 112.5 l66 0 q0 -56 -1 -112.5 q-1 -56.5 -4 -113.5 l360 0 Z" /><glyph glyph-name="" unicode="&#x4f5c;" d="M356 812 q-44 -110 -103 -215 l0 -671 l-67 0 l0 568 q-25 -36 -52 -68 q-27 -32 -54 -60 q-5 11 -17 32.5 q-12 21.5 -22 32.5 q38 36 73.5 81.5 q35.5 45.5 68 97.5 q32.5 52 60.5 108 q28 56 49 114 l64 -20 ZM643 604 l0 -150 l292 0 l0 -62 l-292 0 l0 -158 l305 0 l0 -63 l-305 0 l0 -246 l-67 0 l0 679 l-74 0 q-32 -61 -69 -114.5 q-37 -53.5 -75 -96.5 q-8 8 -24 22.5 q-16 14.5 -28 22.5 q34 35 66 79 q32 44 60.5 93.5 q28.5 49.5 52.5 103 q24 53.5 42 108.5 l64 -16 q-13 -35 -27.5 -69.5 q-14.5 -34.5 -29.5 -68.5 l423 0 l0 -64 l-314 0 Z" /><glyph glyph-name="" unicode="&#x4f7f;" d="M345 818 q-21 -54 -47.5 -106 q-26.5 -52 -56.5 -103 l0 -689 l-64 0 l0 592 q-27 -38 -56 -73 q-29 -35 -59 -64 q-5 12 -16.5 32.5 q-11.5 20.5 -21.5 32.5 q38 35 75 80 q37 45 70.5 96.5 q33.5 51.5 62.5 107.5 q29 56 51 113 l62 -19 ZM600 344 q1 14 1 26 q0 12 0 26 l0 106 l-189 0 l0 -158 l188 0 ZM666 502 l0 -107 q0 -13 0 -25.5 q0 -12.5 -1 -25.5 l195 0 l0 158 l-194 0 ZM661 287 q-6 -53 -21 -102 q-15 -49 -47 -94 q77 -42 171 -69 q94 -27 203 -40 q-11 -11 -22 -28.5 q-11 -17.5 -18 -31.5 q-108 16 -201.5 46 q-93.5 30 -171.5 77 q-38 -38 -93.5 -69.5 q-55.5 -31.5 -136.5 -55.5 q-5 11 -17 28 q-12 17 -23 27 q75 20 128 47 q53 27 88 59 q-94 68 -149 165 l55 18 q47 -77 133 -139 q26 37 39 77.5 q13 40.5 18 84.5 l-245 0 l0 271 l250 0 l0 103 l-281 0 l0 61 l281 0 l0 110 l65 0 l0 -110 l292 0 l0 -61 l-292 0 l0 -103 l258 0 l0 -271 l-263 0 Z" /><glyph glyph-name="" unicode="&#x4fbf;&#xf965;" d="M326 814 q-20 -57 -44 -113 q-24 -56 -52 -109 l0 -665 l-64 0 l0 555 q-20 -32 -41.5 -61 q-21.5 -29 -43.5 -55 q-5 12 -18 32.5 q-13 20.5 -22 32.5 q34 37 66 82.5 q32 45.5 60.5 97.5 q28.5 52 52.5 108 q24 56 43 113 l63 -18 ZM603 308 q1 14 1 28 q0 14 0 28 l0 53 l-185 0 l0 -109 l184 0 ZM419 468 l185 0 l0 108 l-185 0 l0 -108 ZM669 576 l0 -108 l173 0 l0 108 l-173 0 ZM842 417 l-173 0 l0 -53 q0 -14 0 -28 q0 -14 -2 -28 l175 0 l0 109 ZM662 255 q-8 -49 -26 -94 q-18 -45 -54 -87 q78 -34 174 -54.5 q96 -20.5 208 -28.5 q-11 -11 -22.5 -28.5 q-11.5 -17.5 -16.5 -31.5 q-114 11 -212 34.5 q-98 23.5 -178 63.5 q-39 -32 -95 -59 q-56 -27 -132 -48 q-6 11 -17.5 27.5 q-11.5 16.5 -21.5 27.5 q70 16 121.5 37 q51.5 21 87.5 47 q-93 59 -147 146 l57 21 q47 -75 138 -126 q32 35 48 73 q16 38 23 80 l-240 0 l0 374 l247 0 l0 88 l-276 0 l0 60 l615 0 l0 -60 l-274 0 l0 -88 l237 0 l0 -374 l-244 0 Z" /><glyph glyph-name="" unicode="&#x4fee;" d="M302 811 q-16 -51 -36 -100.5 q-20 -49.5 -43 -98.5 l0 -688 l-64 0 l0 570 q-23 -40 -48 -75 q-25 -35 -51 -67 q-5 12 -16 33 q-11 21 -20 34 q33 38 64 84.5 q31 46.5 59 99.5 q28 53 52 110.5 q24 57.5 43 115.5 l60 -18 ZM308 558 l58 0 l0 -479 l-58 0 l0 479 ZM547 668 q24 -38 60 -76 q36 -38 84 -70 q46 29 84 65.5 q38 36.5 64 81.5 l-292 -1 ZM924 708 q-29 -69 -75 -122.5 q-46 -53.5 -106 -95.5 q48 -26 103 -46 q55 -20 121 -33 q-10 -9 -21 -25 q-11 -16 -17 -29 q-71 17 -130 42 q-59 25 -110 56 q-65 -38 -138 -62.5 q-73 -24.5 -148 -41.5 q-5 11 -14 27 q-9 16 -18 25 q70 13 138 34.5 q68 21.5 130 53.5 q-40 31 -71 64 q-31 33 -53 66 q-44 -59 -93 -105 q-8 8 -24 20.5 q-16 12.5 -28 18.5 q61 51 113 125.5 q52 74.5 84 155.5 l61 -16 q-21 -49 -46 -95 l293 0 l10 3 l39 -20 ZM844 264 q-28 -30 -66.5 -57 q-38.5 -27 -83 -50 q-44.5 -23 -93 -41.5 q-48.5 -18.5 -98.5 -32.5 q-7 11 -16 23 q-9 12 -20 22 q48 11 95 27 q47 16 90 36 q43 20 79.5 44 q36.5 24 61.5 51 l51 -22 ZM749 364 q-46 -48 -116 -86 q-70 -38 -142 -62 q-7 10 -17.5 21.5 q-10.5 11.5 -20.5 18.5 q34 11 69 25 q35 14 67 30.5 q32 16.5 60.5 35.5 q28.5 19 48.5 39 l51 -22 ZM947 154 q-37 -44 -90 -79.5 q-53 -35.5 -117.5 -64 q-64.5 -28.5 -138 -49 q-73.5 -20.5 -153.5 -34.5 q-6 13 -15.5 28 q-9.5 15 -19.5 26 q76 11 147.5 29 q71.5 18 133 42.5 q61.5 24.5 111.5 56 q50 31.5 84 70.5 l58 -25 Z" /><glyph glyph-name="" unicode="&#x503c;" d="M331 815 q-21 -59 -47.5 -117 q-26.5 -58 -56.5 -112 l0 -661 l-62 0 l0 560 q-21 -32 -44 -61 q-23 -29 -46 -55 q-5 12 -17 32.5 q-12 20.5 -20 31.5 q35 37 68.5 83 q33.5 46 63.5 98 q30 52 55.5 108 q25.5 56 45.5 113 l60 -20 ZM444 14 l356 0 l0 87 l-356 0 l0 -87 ZM444 522 l0 -89 l356 0 l0 89 l-356 0 ZM800 382 l-356 0 l0 -90 l356 0 l0 90 ZM444 151 l356 0 l0 91 l-356 0 l0 -91 ZM954 14 l0 -58 l-667 0 l0 58 l97 0 l0 560 l172 0 q5 21 10 46.5 q5 25.5 10 51.5 l-247 0 l0 59 l257 0 q5 28 8.5 55 q3.5 27 5.5 50 l72 -6 q-5 -23 -9.5 -48 q-4.5 -25 -10.5 -51 l271 0 l0 -59 l-283 0 q-6 -26 -12.5 -51.5 q-6.5 -25.5 -11.5 -46.5 l246 0 l0 -560 l92 0 Z" /><glyph glyph-name="" unicode="&#x514b;" d="M248 325 l506 0 l0 170 l-506 0 l0 -170 ZM840 -3 q16 0 25.5 5 q9.5 5 15 21 q5.5 16 8.5 45.5 q3 29.5 4 77.5 q11 -9 29.5 -16.5 q18.5 -7.5 32.5 -11.5 q-3 -55 -9 -91 q-6 -36 -18 -56.5 q-12 -20.5 -32 -28.5 q-20 -8 -51 -8 l-163 0 q-33 0 -55 4.5 q-22 4.5 -35 15.5 q-13 11 -18 30 q-5 19 -5 47 l0 234 l-155 0 q-9 -65 -27.5 -119 q-18.5 -54 -55 -96.5 q-36.5 -42.5 -95.5 -74.5 q-59 -32 -148 -53 q-5 14 -17 32 q-12 18 -22 29 q83 17 136.5 43 q53.5 26 86 61 q32.5 35 48.5 79.5 q16 44.5 23 98.5 l-159 0 l0 290 l280 0 l0 117 l-392 0 l0 61 l392 0 l0 103 l67 0 l0 -103 l400 0 l0 -61 l-400 0 l0 -117 l290 0 l0 -290 l-185 0 l0 -234 q0 -22 9.5 -28 q9.5 -6 42.5 -6 l152 0 Z" /><glyph glyph-name="" unicode="&#x514d;" d="M540 524 q-4 -49 -9.5 -94 q-5.5 -45 -15.5 -89 l289 0 l0 183 l-264 0 ZM446 341 q10 43 15 88.5 q5 45.5 9 94.5 l-245 0 l0 -183 l221 0 ZM327 700 q-47 -61 -102 -116 l275 0 q22 24 45 55 q23 31 41 61 l-259 0 ZM835 5 q17 0 26.5 5 q9.5 5 15.5 20 q6 15 8.5 43 q2.5 28 3.5 74 q12 -9 29.5 -16 q17.5 -7 32.5 -11 q-3 -53 -9.5 -87 q-6.5 -34 -18.5 -53.5 q-12 -19.5 -32 -27 q-20 -7.5 -51 -7.5 l-173 0 q-34 0 -57 4.5 q-23 4.5 -36 15 q-13 10.5 -18.5 28.5 q-5.5 18 -5.5 46 l0 242 l-50 0 q-18 -59 -48.5 -111.5 q-30.5 -52.5 -78.5 -96.5 q-48 -44 -116 -79 q-68 -35 -162 -60 q-5 14 -16 30 q-11 16 -22 27 q86 21 148 50.5 q62 29.5 106.5 66 q44.5 36.5 72.5 80.5 q28 44 46 93 l-271 0 l0 243 q-16 -13 -31.5 -25 q-15.5 -12 -32.5 -24 q-8 12 -21.5 26 q-13.5 14 -25.5 22 q51 34 95.5 73 q44.5 39 81.5 80.5 q37 41.5 65.5 82.5 q28.5 41 48.5 78 l72 -13 q-10 -17 -20 -33.5 q-10 -16.5 -22 -33.5 l256 0 l12 3 l44 -29 q-20 -37 -47.5 -75.5 q-27.5 -38.5 -56.5 -71.5 l296 0 l0 -303 l-255 0 l0 -241 q0 -22 10 -28.5 q10 -6.5 45 -6.5 l162 0 Z" /><glyph glyph-name="" unicode="&#x5173;" d="M330 625 q-6 18 -17 39.5 q-11 21.5 -24 44.5 q-13 23 -28 45.5 q-15 22.5 -30 41.5 l54 29 q16 -19 31.5 -41 q15.5 -22 29.5 -44.5 q14 -22.5 25 -44 q11 -21.5 18 -38.5 l-59 -32 ZM558 304 q56 -115 156.5 -195.5 q100.5 -80.5 239.5 -115.5 q-12 -11 -25.5 -29.5 q-13.5 -18.5 -21.5 -32.5 q-134 41 -232.5 123 q-98.5 82 -161.5 201 q-16 -44 -45 -88 q-29 -44 -78 -86 q-49 -42 -119.5 -81.5 q-70.5 -39.5 -168.5 -74.5 q-6 11 -20 29 q-14 18 -27 29 q102 35 172 74 q70 39 115.5 80 q45.5 41 70.5 83.5 q25 42.5 37 83.5 l-377 0 l0 66 l390 0 q3 35 3 65 l0 121 l-334 0 l0 65 l470 0 q15 23 30.5 49.5 q15.5 26.5 30 54.5 q14.5 28 27.5 55 q13 27 23 51 l71 -25 q-24 -46 -53 -94.5 q-29 -48.5 -58 -90.5 l204 0 l0 -65 l-337 0 l0 -122 q0 -31 -3 -64 l394 0 l0 -66 l-373 0 Z" /><glyph glyph-name="" unicode="&#x5185;" d="M899 16 q0 -35 -9.5 -53 q-9.5 -18 -34.5 -26 q-26 -8 -71.5 -10 q-45.5 -2 -112.5 -2 q-2 15 -8.5 34.5 q-6.5 19.5 -14.5 33.5 q54 -2 99.5 -2 q45.5 0 60.5 1 q15 1 20 6 q5 5 5 18 l0 583 l-300 0 q-2 -32 -6 -65.5 q-4 -33.5 -13 -68.5 q38 -33 79 -71 q41 -38 80 -76 q39 -38 72.5 -73.5 q33.5 -35.5 57.5 -63.5 l-54 -42 q-20 26 -49 57.5 q-29 31.5 -62.5 66.5 q-33.5 35 -70 70.5 q-36.5 35.5 -72.5 68.5 q-28 -73 -86 -143.5 q-58 -70.5 -162 -130.5 q-8 11 -21.5 25.5 q-13.5 14.5 -25.5 23.5 q84 46 135.5 99 q51.5 53 80 108 q28.5 55 38.5 110 q10 55 12 105 l-297 0 l0 -677 l-66 0 l0 742 l364 0 l0 172 l67 0 l0 -172 l365 0 l0 -648 Z" /><glyph glyph-name="" unicode="&#x518c;" d="M779 440 l0 267 l-168 0 l0 -243 l0 -24 l168 0 ZM372 440 l0 267 l-149 0 l0 -242 l0 -25 l149 0 ZM954 376 l-109 0 l0 -369 q0 -30 -8 -46 q-8 -16 -28 -24 q-20 -9 -55 -11 q-35 -2 -89 -2 q-3 14 -9.5 32 q-6.5 18 -13.5 31 q41 -1 73.5 -1 q32.5 0 43.5 0 q11 1 15.5 5.5 q4.5 4.5 4.5 16.5 l0 368 l-170 0 q-2 -55 -8.5 -115 q-6.5 -60 -20 -119 q-13.5 -59 -34.5 -115.5 q-21 -56.5 -53 -104.5 q-7 11 -22.5 25.5 q-15.5 14.5 -26.5 20.5 q28 44 46.5 94.5 q18.5 50.5 30 103 q11.5 52.5 17 106 q5.5 53.5 7.5 104.5 l-109 0 l0 -363 q0 -29 -7.5 -44.5 q-7.5 -15.5 -26.5 -23.5 q-20 -8 -53.5 -10 q-33.5 -2 -85.5 -2 q-2 13 -9 30 q-7 17 -13 30 q38 -1 69.5 -1 q31.5 0 42.5 1 q19 0 19 20 l0 363 l-151 0 q-3 -56 -10 -116 q-7 -60 -21.5 -120 q-14.5 -60 -38 -116.5 q-23.5 -56.5 -58.5 -104.5 q-7 11 -22 26 q-15 15 -26 20 q32 45 52.5 95.5 q20.5 50.5 33 104 q12.5 53.5 18.5 107 q6 53.5 8 104.5 l-111 0 l0 64 l113 0 l0 25 l0 304 l277 0 l0 -329 l110 0 l0 25 l0 304 l299 0 l0 -329 l109 0 l0 -64 Z" /><glyph glyph-name="" unicode="&#x5199;" d="M818 352 q-9 -93 -18.5 -159.5 q-9.5 -66.5 -19.5 -111.5 q-10 -45 -21.5 -72 q-11.5 -27 -26.5 -41 q-16 -17 -34 -22.5 q-18 -5.5 -46 -6.5 q-23 -2 -67.5 -1 q-44.5 1 -93.5 4 q-1 14 -7 31.5 q-6 17.5 -14 31.5 q52 -5 97 -6.5 q45 -1.5 64 -1.5 q17 0 27.5 2 q10.5 2 18.5 9 q12 10 21.5 32 q9.5 22 18.5 60 q9 38 17 93 q8 55 15 131 l-530 0 q10 36 21.5 82 q11.5 46 23 96 q11.5 50 22 100.5 q10.5 50.5 18.5 93.5 l67 -6 q-5 -27 -11 -55.5 q-6 -28.5 -13 -57.5 l449 0 l0 -59 l-462 0 q-8 -35 -15.5 -69.5 q-7.5 -34.5 -15.5 -64.5 l518 0 l-3 -32 ZM661 148 l-567 0 l0 62 l567 0 l0 -62 ZM918 780 l0 -188 l-68 0 l0 126 l-701 0 l0 -126 l-66 0 l0 188 l835 0 Z" /><glyph glyph-name="" unicode="&#x51c6;" d="M681 659 q-9 29 -30.5 69.5 q-21.5 40.5 -42.5 73.5 l56 26 q23 -34 44.5 -72.5 q21.5 -38.5 32.5 -67.5 l-60 -29 ZM190 542 q-10 21 -25.5 48.5 q-15.5 27.5 -34 57.5 q-18.5 30 -38.5 59.5 q-20 29.5 -39 55.5 l58 27 q20 -25 40.5 -54 q20.5 -29 39 -57.5 q18.5 -28.5 35 -55.5 q16.5 -27 26.5 -48 l-62 -33 ZM54 4 q17 30 36.5 69.5 q19.5 39.5 40 83.5 q20.5 44 40 90 q19.5 46 35.5 90 l59 -33 q-16 -41 -34 -85 q-18 -44 -37 -87.5 q-19 -43.5 -38 -84.5 q-19 -41 -36 -76 l-66 33 ZM431 57 l216 0 l0 143 l-216 0 l0 -143 ZM647 597 l-216 0 l0 -139 l216 0 l0 139 ZM647 399 l-216 0 l0 -140 l216 0 l0 140 ZM948 -4 l-517 0 l0 -72 l-62 0 l0 595 q-48 -73 -103 -133 q-8 9 -23 24 q-15 15 -27 23 q74 71 134.5 174.5 q60.5 103.5 98.5 218.5 l61 -15 q-14 -40 -30 -78.5 q-16 -38.5 -34 -76.5 l481 0 l0 -59 l-216 0 l0 -139 l196 0 l0 -59 l-196 0 l0 -140 l195 0 l0 -59 l-195 0 l0 -143 l237 0 l0 -61 Z" /><glyph glyph-name="" unicode="&#x5206;" d="M398 795 q-51 -125 -127.5 -230.5 q-76.5 -105.5 -165.5 -177.5 q-9 11 -26 26 q-17 15 -30 24 q90 66 162.5 164 q72.5 98 116.5 213 l70 -19 ZM808 458 q0 -7 0 -13 q0 -6 -0.5 -11.5 q-0.5 -5.5 -0.5 -8.5 q-6 -115 -11.5 -195.5 q-5.5 -80.5 -13 -134 q-7.5 -53.5 -17 -83.5 q-9.5 -30 -22.5 -45 q-15 -17 -32 -23.5 q-17 -6.5 -43 -8.5 q-25 -2 -67.5 -1 q-42.5 1 -90.5 4 q-2 15 -7.5 33.5 q-5.5 18.5 -14.5 32.5 q51 -5 93 -6 q42 -1 60 -1 q17 0 26 2.5 q9 2.5 17 9.5 q10 10 17.5 34.5 q7.5 24.5 14 70 q6.5 45.5 11.5 113.5 q5 68 10 165 l-283 0 q-10 -74 -29.5 -144 q-19.5 -70 -57.5 -131 q-38 -61 -100 -111.5 q-62 -50.5 -157 -84.5 q-6 13 -18 29.5 q-12 16.5 -23 26.5 q89 30 146 74 q57 44 92 98 q35 54 52 116 q17 62 25 127 l-197 0 l0 66 l621 0 ZM669 816 q23 -51 56.5 -103.5 q33.5 -52.5 71.5 -100.5 q38 -48 79 -89.5 q41 -41.5 80 -70.5 q-13 -10 -28 -26 q-15 -16 -25 -30 q-39 33 -80 78.5 q-41 45.5 -80 97.5 q-39 52 -73.5 108.5 q-34.5 56.5 -60.5 111.5 l60 24 Z" /><glyph glyph-name="" unicode="&#x5217;" d="M66 780 l504 0 l0 -64 l-270 0 q-20 -84 -45 -158 l231 0 l12 3 l40 -13 q-19 -129 -56.5 -230 q-37.5 -101 -91 -178 q-53.5 -77 -120.5 -131.5 q-67 -54.5 -144 -89.5 q-7 13 -18.5 29 q-11.5 16 -22.5 27 q75 30 140 81.5 q65 51.5 116 126.5 q-15 14 -33.5 30 q-18.5 16 -39.5 32 q-21 16 -42.5 31.5 q-21.5 15.5 -41.5 28.5 l39 49 q38 -24 80.5 -55 q42.5 -31 73.5 -58 q30 54 53 117.5 q23 63.5 37 137.5 l-235 0 q-25 -63 -55 -118 q-30 -55 -65 -99 q-8 8 -24.5 21.5 q-16.5 13.5 -27.5 21.5 q60 72 103.5 174.5 q43.5 102.5 69.5 219.5 l-167 0 l0 64 ZM711 164 l-65 0 l0 553 l65 0 l0 -553 ZM917 832 l0 -818 q0 -33 -9.5 -49.5 q-9.5 -16.5 -29.5 -24.5 q-21 -8 -56 -10 q-35 -2 -92 -2 q-3 14 -9.5 32 q-6.5 18 -13.5 32 q42 -1 76.5 -1 q34.5 0 45.5 1 q12 0 17 4.5 q5 4.5 5 17.5 l0 818 l66 0 Z" /><glyph glyph-name="" unicode="&#x5219;" d="M368 159 q23 -18 48.5 -39 q25.5 -21 49.5 -42.5 q24 -21.5 45 -42 q21 -20.5 36 -36.5 l-43 -49 q-14 17 -35 38 q-21 21 -45 43.5 q-24 22.5 -49 44.5 q-25 22 -49 41 l42 42 ZM533 781 l0 -600 l-64 0 l0 539 l-295 0 l0 -541 l-63 0 l0 602 l422 0 ZM902 829 l0 -807 q0 -36 -10 -53.5 q-10 -17.5 -33 -26.5 q-24 -8 -65.5 -10.5 q-41.5 -2.5 -110.5 -1.5 q-3 14 -10 33.5 q-7 19.5 -15 33.5 q54 -2 96 -2 q42 0 57 1 q14 1 20 6 q6 5 6 19 l0 808 l65 0 ZM715 746 l0 -592 l-63 0 l0 592 l63 0 ZM351 649 l0 -282 q0 -57 -9 -118 q-9 -61 -36.5 -119.5 q-27.5 -58.5 -78.5 -111.5 q-51 -53 -135 -95 q-5 11 -17.5 26.5 q-12.5 15.5 -23.5 22.5 q79 40 126 87.5 q47 47.5 71.5 99 q24.5 51.5 31.5 105 q7 53.5 7 105.5 l0 280 l64 0 Z" /><glyph glyph-name="" unicode="&#x521b;" d="M453 -3 q18 0 28.5 5.5 q10.5 5.5 16.5 21 q6 15.5 9 43 q3 27.5 5 72.5 q12 -8 29 -15 q17 -7 31 -10 q-3 -52 -9.5 -85.5 q-6.5 -33.5 -19 -53.5 q-12.5 -20 -33.5 -28 q-21 -8 -53 -8 l-190 0 q-34 0 -57.5 4.5 q-23.5 4.5 -37.5 16 q-14 11.5 -20 31 q-6 19.5 -6 50.5 l0 430 l358 0 q0 -5 -1 -11 q0 -4 -0.5 -9 q-0.5 -5 -0.5 -8 q-4 -65 -8 -111 q-4 -46 -8.5 -76.5 q-4.5 -30.5 -11 -48.5 q-6.5 -18 -14.5 -27 q-11 -13 -24 -17.5 q-13 -4.5 -31 -6.5 q-16 -2 -42 -2 q-26 0 -55 2 q-1 14 -5.5 30 q-4.5 16 -11.5 28 q28 -3 52 -3.5 q24 -0.5 35 -0.5 q10 0 16.5 1.5 q6.5 1.5 12.5 7.5 q9 11 16.5 54 q7.5 43 13.5 139 l-227 0 l0 -371 q0 -28 11.5 -36 q11.5 -8 50.5 -8 l181 0 ZM378 815 q-5 -11 -9.5 -21.5 q-4.5 -10.5 -9.5 -21.5 q31 -32 64.5 -68 q33.5 -36 65 -72 q31.5 -36 59 -69 q27.5 -33 45.5 -60 l-49 -44 q-16 26 -40.5 57.5 q-24.5 31.5 -53 65.5 q-28.5 34 -59.5 69 q-31 35 -62 67 q-47 -83 -110 -157 q-63 -74 -138 -132 q-8 10 -23 23.5 q-15 13.5 -26 21.5 q48 35 91 77 q43 42 79.5 88.5 q36.5 46.5 66 96 q29.5 49.5 49.5 97.5 l60 -18 ZM710 170 l-63 0 l0 549 l63 0 l0 -549 ZM908 820 l0 -803 q0 -36 -10.5 -52.5 q-10.5 -16.5 -33.5 -24.5 q-23 -8 -65 -10.5 q-42 -2.5 -112 -1.5 q-3 13 -9.5 31 q-6.5 18 -14.5 32 q54 -2 96.5 -1.5 q42.5 0.5 56.5 0.5 q14 1 20 6.5 q6 5.5 6 19.5 l0 804 l66 0 Z" /><glyph glyph-name="" unicode="&#x521d;" d="M251 667 q-13 29 -37.5 68.5 q-24.5 39.5 -48.5 71.5 l51 28 q25 -31 50 -68.5 q25 -37.5 38 -65.5 l-53 -34 ZM381 190 q-8 12 -20 28.5 q-12 16.5 -26.5 36 q-14.5 19.5 -30.5 39.5 q-16 20 -31 38 l0 -406 l-68 0 l0 394 q-32 -37 -64 -69 q-32 -32 -64 -58 q-5 13 -16.5 33 q-11.5 20 -20.5 28 q38 29 77 67.5 q39 38.5 75 83.5 q36 45 67 93.5 q31 48.5 54 97.5 l-255 0 l0 61 l288 0 l13 3 l39 -27 q-23 -58 -54.5 -114.5 q-31.5 -56.5 -69.5 -109.5 q8 -8 16.5 -18.5 q8.5 -10.5 19.5 -21.5 q22 23 44.5 50 q22.5 27 36.5 48 l47 -38 q-23 -24 -48.5 -49 q-25.5 -25 -48.5 -45 q26 -29 49 -54.5 q23 -25.5 33 -36.5 l-42 -54 ZM918 712 q-5 -193 -11 -326 q-6 -133 -13.5 -218.5 q-7.5 -85.5 -18 -130.5 q-10.5 -45 -25.5 -64 q-16 -21 -33 -29.5 q-17 -8.5 -42 -11.5 q-26 -2 -65 -1.5 q-39 0.5 -82 3.5 q-2 14 -7 32 q-5 18 -13 32 q48 -4 86.5 -5 q38.5 -1 55.5 -1 q14 0 23 3 q9 3 18 14 q13 14 22 55.5 q9 41.5 16.5 121 q7.5 79.5 13 202 q5.5 122.5 10.5 297.5 l-202 0 q-6 -135 -20 -248.5 q-14 -113.5 -42.5 -208 q-28.5 -94.5 -74.5 -170 q-46 -75.5 -117 -135.5 q-7 10 -23.5 26.5 q-16.5 16.5 -27.5 24.5 q69 53 112.5 123.5 q43.5 70.5 69.5 159.5 q26 89 38 196 q12 107 17 232 l-170 0 l0 64 l505 0 l0 -37 Z" /><glyph glyph-name="" unicode="&#x5220;" d="M557 447 l0 296 l-100 0 l0 -296 l100 0 ZM270 447 l0 297 l-100 0 l0 -297 l100 0 ZM614 447 l52 0 l0 -62 l-52 0 l0 -376 q0 -25 -6 -39 q-6 -14 -22 -22 q-16 -8 -41.5 -10 q-25.5 -2 -64.5 -2 q-2 12 -7 29 q-5 17 -11 29 q28 -1 50 -1 q22 0 30 0 q8 1 11.5 4 q3.5 3 3.5 13 l0 375 l-100 0 l0 -20 q0 -51 -2 -109 q-2 -58 -9.5 -116.5 q-7.5 -58.5 -21.5 -114 q-14 -55.5 -37 -100.5 q-7 8 -22 17 q-15 9 -25 14 q21 42 33 93 q12 51 18 105 q6 54 7.5 108 q1.5 54 1.5 102 l0 21 l-73 0 l0 -376 q0 -25 -6 -39 q-6 -14 -23 -22 q-15 -8 -40.5 -10 q-25.5 -2 -64.5 -2 q-2 12 -7 29 q-5 17 -11 29 q28 -1 50 -0.5 q22 0.5 30 0.5 q15 0 15 16 l0 375 l-100 0 l0 -50 q0 -49 -2.5 -104 q-2.5 -55 -10.5 -109.5 q-8 -54.5 -23.5 -105.5 q-15.5 -51 -41.5 -91 q-7 8 -22 18.5 q-15 10.5 -26 15.5 q24 39 38 85 q14 46 20.5 95.5 q6.5 49.5 8.5 99.5 q2 50 2 96 l0 50 l-65 0 l0 62 l65 0 l0 356 l214 0 l0 -356 l73 0 l0 355 l214 0 l0 -355 ZM766 166 l-55 0 l0 557 l55 0 l0 -557 ZM914 818 l0 -817 q0 -29 -7.5 -43 q-7.5 -14 -24.5 -22 q-18 -8 -47.5 -10 q-29.5 -2 -77.5 -2 q-2 12 -8 29 q-6 17 -12 30 q36 -1 64 -0.5 q28 0.5 36 0.5 q11 0 15 4 q4 4 4 15 l0 816 l58 0 Z" /><glyph glyph-name="" unicode="&#x5230;" d="M363 93 q53 10 106 19 q53 9 106 20 l4 -58 q-66 -13 -134 -26.5 q-68 -13.5 -132.5 -26 q-64.5 -12.5 -123.5 -23.5 q-59 -11 -108 -20 l-14 62 q47 8 106 18.5 q59 10.5 126 22.5 l0 174 l-197 0 l0 60 l197 0 l0 111 l64 0 l0 -111 l203 0 l0 -60 l-203 0 l0 -162 ZM75 768 l510 0 l0 -59 l-271 0 q-27 -53 -58 -103 q-31 -50 -63 -92 l270 24 q-20 27 -39.5 53.5 q-19.5 26.5 -38.5 49.5 l48 29 q21 -25 43.5 -54 q22.5 -29 43 -57.5 q20.5 -28.5 37.5 -55 q17 -26.5 28 -47.5 l-50 -33 q-14 28 -38 64 q-119 -12 -189.5 -19.5 q-70.5 -7.5 -109 -12 q-38.5 -4.5 -53.5 -7.5 q-15 -3 -23 -7 q-3 11 -9.5 30.5 q-6.5 19.5 -13.5 32.5 q12 2 23.5 14.5 q11.5 12.5 24.5 29.5 q6 8 16.5 23.5 q10.5 15.5 23.5 37 q13 21.5 27 47 q14 25.5 26 53.5 l-165 0 l0 59 ZM706 149 l-62 0 l0 601 l62 0 l0 -601 ZM906 818 l0 -783 q0 -33 -9 -50 q-9 -17 -30 -25 q-23 -8 -61 -10.5 q-38 -2.5 -92 -2.5 q-3 14 -10.5 33.5 q-7.5 19.5 -15.5 33.5 q45 -2 82 -2 q37 0 50 1 q13 1 17 5 q4 4 4 16 l0 784 l65 0 Z" /><glyph glyph-name="" unicode="&#x52a0;" d="M490 652 q0 -7 0 -14 q0 -6 -0.5 -12 q-0.5 -6 -0.5 -9 q-7 -164 -14 -276.5 q-7 -112.5 -15.5 -185 q-8.5 -72.5 -19 -112 q-10.5 -39.5 -24.5 -56.5 q-14 -19 -29 -26.5 q-15 -7.5 -36 -9.5 q-19 -2 -48 -2 q-29 0 -61 2 q-1 15 -5.5 34.5 q-4.5 19.5 -12.5 33.5 q32 -3 59 -4 q27 -1 41 -1 q11 0 19 3 q8 3 15 14 q11 12 20 47 q9 35 16.5 100 q7.5 65 14.5 165 q7 100 13 244 l-148 0 q-4 -94 -14.5 -186.5 q-10.5 -92.5 -30 -177.5 q-19.5 -85 -51.5 -160 q-32 -75 -80 -133 q-9 11 -24 23.5 q-15 12.5 -29 19.5 q45 53 74.5 122 q29.5 69 48 149 q18.5 80 28 167.5 q9.5 87.5 13.5 175.5 l-142 0 l0 65 l144 0 q1 47 1.5 92 q0.5 45 0.5 89 l66 0 q0 -88 -3 -181 l214 0 ZM840 76 l0 569 l-205 0 l0 -569 l205 0 ZM909 709 l0 -764 l-69 0 l0 67 l-205 0 l0 -74 l-66 0 l0 771 l340 0 Z" /><glyph glyph-name="" unicode="&#x52a1;" d="M864 280 q0 -6 -1 -12 q0 -5 -0.5 -10 q-0.5 -5 -1.5 -8 q-9 -69 -17.5 -118.5 q-8.5 -49.5 -17.5 -83.5 q-9 -34 -19.5 -54.5 q-10.5 -20.5 -22.5 -31.5 q-16 -14 -33.5 -19.5 q-17.5 -5.5 -43.5 -6.5 q-22 -1 -61.5 0 q-39.5 1 -83.5 3 q-2 14 -7.5 30 q-5.5 16 -13.5 29 q46 -5 88.5 -6 q42.5 -1 59.5 -1 q16 0 25.5 1.5 q9.5 1.5 17.5 8.5 q17 14 32.5 65.5 q15.5 51.5 27.5 154.5 l-310 0 q-47 -122 -142 -190.5 q-95 -68.5 -244 -104.5 q-5 11 -16 28.5 q-11 17.5 -20 28.5 q137 26 223 81.5 q86 55.5 129 156.5 l-281 0 l0 59 l300 0 q7 23 12 48.5 q5 25.5 8 53.5 l69 -6 q-4 -26 -8.5 -50 q-4.5 -24 -11.5 -46 l364 0 ZM323 658 q32 -43 79.5 -76.5 q47.5 -33.5 108.5 -59.5 q72 29 133 66.5 q61 37.5 106 85.5 l-412 0 l-15 -16 ZM853 707 q-45 -68 -113.5 -120.5 q-68.5 -52.5 -152.5 -92.5 q80 -26 173 -41 q93 -15 196 -22 q-11 -12 -21 -29 q-10 -17 -16 -31 q-116 10 -219 31.5 q-103 21.5 -191 57.5 q-102 -40 -212.5 -64 q-110.5 -24 -220.5 -38 q-3 13 -11 30.5 q-8 17.5 -16 28.5 q98 9 197 28.5 q99 19.5 190 49.5 q-47 26 -86 56.5 q-39 30.5 -70 68.5 q-32 -26 -67 -50 q-35 -24 -75 -47 q-7 11 -19 25.5 q-12 14.5 -23 22.5 q106 57 179 128.5 q73 71.5 112 137.5 l70 -14 q-14 -23 -30.5 -45.5 q-16.5 -22.5 -36.5 -45.5 l411 0 l12 3 l40 -28 Z" /><glyph glyph-name="" unicode="&#x5305;" d="M269 637 q-40 -57 -84 -105 q-44 -48 -90 -86 q-9 8 -26 23.5 q-17 15.5 -29 24.5 q82 61 152 152.5 q70 91.5 114 194.5 l67 -19 q-28 -61 -63 -121 l559 0 q0 -7 0 -13 q0 -6 -0.5 -11.5 q-0.5 -5.5 -0.5 -8.5 q-4 -126 -8.5 -213 q-4.5 -87 -10 -143 q-5.5 -56 -13 -86.5 q-7.5 -30.5 -17.5 -44.5 q-13 -16 -27.5 -22.5 q-14.5 -6.5 -34.5 -8.5 q-20 -2 -50.5 -1.5 q-30.5 0.5 -65.5 2.5 q-2 14 -6 32 q-4 18 -12 31 q34 -3 62.5 -3.5 q28.5 -0.5 40.5 -0.5 q12 0 19.5 2.5 q7.5 2.5 14.5 10.5 q8 9 13.5 34.5 q5.5 25.5 10.5 74 q5 48.5 9 123 q4 74.5 7 182.5 l-531 0 ZM264 468 l0 -170 l274 0 l0 170 l-274 0 ZM782 9 q32 0 52 5 q20 5 32 19.5 q12 14.5 17.5 39.5 q5.5 25 9.5 64 q12 -8 30.5 -15 q18.5 -7 32.5 -9 q-5 -49 -14 -81 q-9 -32 -28 -51 q-19 -19 -50.5 -27 q-31.5 -8 -81.5 -8 l-387 0 q-57 0 -94.5 5.5 q-37.5 5.5 -60.5 20.5 q-23 15 -32.5 40.5 q-9.5 25.5 -9.5 64.5 l0 451 l404 0 l0 -291 l-338 0 l0 -160 q0 -20 4.5 -33.5 q4.5 -13.5 18 -21 q13.5 -7.5 38.5 -10.5 q25 -3 65 -3 l392 0 Z" /><glyph glyph-name="" unicode="&#x5316;" d="M384 815 q-42 -103 -100 -197 l0 -694 l-69 0 l0 591 q-29 -41 -60 -77 q-31 -36 -63 -66 q-3 5 -8.5 13.5 q-5.5 8.5 -11.5 17.5 q-6 9 -12.5 17.5 q-6.5 8.5 -11.5 13.5 q40 36 79 81.5 q39 45.5 74 97.5 q35 52 65.5 108 q30.5 56 53.5 114 l64 -20 ZM822 9 q20 0 32.5 9.5 q12.5 9.5 20 33.5 q7.5 24 11 66 q3.5 42 6.5 106 q14 -10 32 -19 q18 -9 33 -14 q-4 -69 -10.5 -116.5 q-6.5 -47.5 -20.5 -76.5 q-14 -29 -38 -42 q-24 -13 -63 -13 l-182 0 q-36 0 -60 6 q-24 6 -38 21.5 q-14 15.5 -20 41.5 q-6 26 -6 65 l0 185 q-36 -24 -71.5 -45 q-35.5 -21 -70.5 -39 q-8 11 -22.5 25.5 q-14.5 14.5 -26.5 24.5 q48 23 95.5 52 q47.5 29 95.5 62 l0 475 l70 0 l0 -423 q82 64 153.5 138.5 q71.5 74.5 125.5 156.5 l64 -42 q-68 -96 -157 -181 q-89 -85 -186 -156 l0 -235 q0 -41 11.5 -53.5 q11.5 -12.5 48.5 -12.5 l173 0 Z" /><glyph glyph-name="" unicode="&#x5357;" d="M371 478 q19 -27 36 -60 q17 -33 24 -58 l-54 -18 q-8 26 -23.5 60 q-15.5 34 -34.5 62 l52 14 ZM529 123 l0 -181 l-63 0 l0 181 l-220 0 l0 56 l220 0 l0 108 l-200 0 l0 55 l296 0 q17 32 33.5 70.5 q16.5 38.5 27.5 69.5 l58 -14 q-14 -32 -29.5 -65 q-15.5 -33 -30.5 -61 l120 0 l0 -55 l-212 0 l0 -108 l228 0 l0 -56 l-228 0 ZM527 670 q-5 -30 -8.5 -58.5 q-3.5 -28.5 -8.5 -53.5 l372 0 l0 -553 q0 -32 -9 -47.5 q-9 -15.5 -32 -23.5 q-24 -8 -66 -9.5 q-42 -1.5 -103 -1.5 q-3 14 -9.5 31 q-6.5 17 -13.5 30 q48 -2 89 -2 q41 0 54 1 q14 1 18.5 5.5 q4.5 4.5 4.5 16.5 l0 492 l-628 0 l0 -572 l-66 0 l0 633 l326 0 q4 25 7.5 53.5 q3.5 28.5 6.5 58.5 l-397 0 l0 62 l403 0 q2 28 4 55 q2 27 3 50 l71 -8 l-12 -97 l405 0 l0 -62 l-411 0 Z" /><glyph glyph-name="" unicode="&#x535a;" d="M675 561 l0 -62 l163 0 l0 62 l-163 0 ZM838 391 l0 62 l-163 0 l0 -62 l163 0 ZM614 391 l0 62 l-164 0 l0 -62 l164 0 ZM450 561 l0 -62 l164 0 l0 62 l-164 0 ZM614 670 l-274 0 l0 55 l274 0 l0 110 l61 0 l0 -110 l190 0 q-26 14 -64 33.5 q-38 19.5 -70 36.5 l28 39 q17 -8 37 -17 q20 -9 39 -18.5 q19 -9.5 36.5 -18 q17.5 -8.5 30.5 -15.5 l-26 -40 l71 0 l0 -55 l-272 0 l0 -60 l223 0 l0 -333 l-60 0 l0 68 l-163 0 l0 -65 l-61 0 l0 65 l-164 0 l0 -74 l-59 0 l0 339 l223 0 l0 60 ZM235 508 l0 -583 l-65 0 l0 583 l-125 0 l0 62 l125 0 l0 265 l65 0 l0 -265 l110 0 l0 -62 l-110 0 ZM457 150 q18 -13 38 -29 q20 -16 39.5 -31.5 q19.5 -15.5 36.5 -30.5 q17 -15 29 -26 l-40 -45 q-12 12 -29 27.5 q-17 15.5 -36 32 q-19 16.5 -39 33.5 q-20 17 -38 31 l39 38 ZM956 163 l-145 0 l0 -166 q0 -26 -7 -39.5 q-7 -13.5 -27 -21.5 q-21 -7 -55 -8 q-34 -1 -87 -1 q-2 13 -7.5 28 q-5.5 15 -11.5 27 q42 -1 73 -1 q31 0 42 1 q11 0 14 3.5 q3 3.5 3 12.5 l0 165 l-433 0 l0 58 l433 0 l0 59 l63 0 l0 -59 l145 0 l0 -58 Z" /><glyph glyph-name="" unicode="&#x53ef;" d="M228 482 l0 -242 l275 0 l0 242 l-275 0 ZM228 177 l0 -80 l-64 0 l0 448 l404 0 l0 -368 l-340 0 ZM944 697 l-124 0 l0 -674 q0 -38 -11 -57 q-11 -19 -38 -28 q-29 -9 -80 -10.5 q-51 -1.5 -124 -1.5 q-4 15 -12.5 36 q-8.5 21 -16.5 36 q31 -2 60.5 -2.5 q29.5 -0.5 54.5 -0.5 q25 0 43.5 0.5 q18.5 0.5 27.5 0.5 q16 1 22 7 q6 6 6 21 l0 673 l-692 0 l0 67 l884 0 l0 -67 Z" /><glyph glyph-name="" unicode="&#x53f0;" d="M251 276 l0 -232 l495 0 l0 232 l-495 0 ZM184 340 l632 0 l0 -413 l-70 0 l0 53 l-495 0 l0 -55 l-67 0 l0 415 ZM654 718 q37 -32 75.5 -69.5 q38.5 -37.5 74.5 -76 q36 -38.5 66.5 -76 q30.5 -37.5 49.5 -68.5 l-57 -40 q-12 20 -27.5 42 q-15.5 22 -35.5 46 q-145 -8 -249 -14 q-104 -6 -175.5 -10.5 q-71.5 -4.5 -116 -7.5 q-44.5 -3 -71 -5.5 q-26.5 -2.5 -39.5 -5 q-13 -2.5 -22 -6.5 q-2 11 -9 31.5 q-7 20.5 -12 33.5 q15 4 35 19.5 q20 15.5 46 40.5 q13 12 40 40.5 q27 28.5 60 67.5 q33 39 68.5 84.5 q35.5 45.5 65.5 92.5 l65 -30 q-62 -84 -128.5 -160.5 q-66.5 -76.5 -135.5 -139.5 l530 26 q-35 40 -74 79 q-39 39 -76 72 l52 34 Z" /><glyph glyph-name="" unicode="&#x540d;" d="M778 40 l0 235 l-456 0 l0 -235 l456 0 ZM845 -75 l-67 0 l0 54 l-456 0 l0 -54 l-66 0 l0 334 q-43 -15 -85 -27.5 q-42 -12.5 -84 -22.5 q-4 14 -14 32 q-10 18 -20 29 q94 20 190 54 q96 34 186 83 q-33 31 -76 65 q-43 34 -82 61 l50 38 q42 -28 87.5 -63 q45.5 -35 80.5 -66 q78 48 142.5 105.5 q64.5 57.5 110.5 126.5 l-379 0 q-49 -48 -108.5 -91 q-59.5 -43 -131.5 -81 q-8 11 -21.5 26.5 q-13.5 15.5 -24.5 23.5 q60 29 112 64 q52 35 94 72.5 q42 37.5 74.5 75.5 q32.5 38 54.5 74 l74 -15 q-14 -22 -30.5 -44 q-16.5 -22 -35.5 -44 l364 0 l12 4 l44 -28 q-64 -122 -170.5 -215.5 q-106.5 -93.5 -235.5 -159.5 l411 0 l0 -411 Z" /><glyph glyph-name="" unicode="&#x540e;" d="M379 285 l0 -247 l427 0 l0 247 l-427 0 ZM312 348 l563 0 l0 -424 l-69 0 l0 52 l-427 0 l0 -53 l-67 0 l0 425 ZM949 559 l0 -64 l-726 0 l0 -6 q0 -61 -4.5 -134.5 q-4.5 -73.5 -18.5 -149.5 q-14 -76 -39.5 -149 q-25.5 -73 -68.5 -134 q-8 11 -25.5 25 q-17.5 14 -29.5 21 q40 57 63.5 124.5 q23.5 67.5 35.5 136.5 q12 69 15.5 136 q3.5 67 3.5 124 l0 256 q89 6 183 14 q94 8 182.5 18 q88.5 10 167 22.5 q78.5 12.5 135.5 26.5 l56 -54 q-64 -15 -142.5 -27.5 q-78.5 -12.5 -164 -23 q-85.5 -10.5 -174.5 -18 q-89 -7.5 -175 -13.5 l0 -131 l726 0 Z" /><glyph glyph-name="" unicode="&#x542c;" d="M144 679 l0 -447 l140 0 l0 447 l-140 0 ZM349 167 l-205 0 l0 -76 l-63 0 l0 653 l268 0 l0 -577 ZM947 447 l-133 0 l0 -521 l-67 0 l0 521 l-205 0 q-1 -59 -6 -126.5 q-5 -67.5 -19.5 -136.5 q-14.5 -69 -39.5 -135 q-25 -66 -66 -121 q-9 11 -27 24 q-18 13 -29 19 q41 54 64.5 118 q23.5 64 35.5 130 q12 66 15.5 130.5 q3.5 64.5 3.5 120.5 l0 261 q50 9 102 20.5 q52 11.5 100.5 24.5 q48.5 13 91.5 26.5 q43 13.5 74 27.5 l58 -52 q-72 -28 -167.5 -51.5 q-95.5 -23.5 -190.5 -41.5 l0 -173 l405 0 l0 -65 Z" /><glyph glyph-name="" unicode="&#x542f;" d="M225 630 l0 -147 l572 0 l0 147 l-572 0 ZM225 421 q-1 -57 -7 -122 q-6 -65 -20.5 -131 q-14.5 -66 -39.5 -129.5 q-25 -63.5 -64 -116.5 q-8 11 -25 25.5 q-17 14.5 -29 20.5 q40 54 63.5 116 q23.5 62 35.5 126.5 q12 64.5 15.5 127 q3.5 62.5 3.5 116.5 l0 238 l344 0 q-10 28 -27.5 62.5 q-17.5 34.5 -34.5 63.5 l62 18 q20 -31 39 -67.5 q19 -36.5 29 -62.5 l-40 -14 l333 0 l0 -271 l-638 0 ZM812 56 l0 191 l-473 0 l0 -191 l473 0 ZM879 309 l0 -379 l-67 0 l0 65 l-473 0 l0 -67 l-65 0 l0 381 l605 0 Z" /><glyph glyph-name="" unicode="&#x547d;" d="M194 365 l0 -218 l175 0 l0 218 l-175 0 ZM432 87 l-238 0 l0 -85 l-61 0 l0 422 l299 0 l0 -337 ZM692 511 l-393 0 l0 61 l393 0 l0 -61 ZM872 143 q0 -28 -7 -44 q-7 -16 -27 -24 q-20 -8 -56.5 -9.5 q-36.5 -1.5 -95.5 -1.5 q-2 14 -7.5 31 q-5.5 17 -11.5 31 q45 -2 78 -1.5 q33 0.5 44 0.5 q11 1 15 4.5 q4 3.5 4 14.5 l0 221 l-201 0 l0 -441 l-65 0 l0 501 l330 0 l0 -282 ZM558 808 q-4 -6 -8 -11.5 q-4 -5.5 -9 -10.5 q34 -40 82 -78 q48 -38 103.5 -71 q55.5 -33 115.5 -59 q60 -26 120 -41 q-13 -11 -27 -30 q-14 -19 -22 -34 q-57 18 -114 46 q-57 28 -110 62.5 q-53 34.5 -100.5 75.5 q-47.5 41 -85.5 84 q-40 -44 -89.5 -85 q-49.5 -41 -105 -76 q-55.5 -35 -114 -63.5 q-58.5 -28.5 -116.5 -48.5 q-7 15 -17 33 q-10 18 -21 32 q69 19 137 51 q68 32 129 73.5 q61 41.5 112.5 89.5 q51.5 48 85.5 99 l54 -38 Z" /><glyph glyph-name="" unicode="&#x5546;" d="M445 420 q-19 -22 -42.5 -45.5 q-23.5 -23.5 -48.5 -46 q-25 -22.5 -50.5 -42.5 q-25.5 -20 -48.5 -36 q-4 8 -14.5 25 q-10.5 17 -18.5 26 q45 29 92.5 66 q47.5 37 81.5 75 l49 -22 ZM375 226 l0 -122 l247 0 l0 122 l-247 0 ZM375 53 l0 -47 l-58 0 l0 271 l361 0 l0 -224 l-303 0 ZM759 254 q-16 15 -39.5 34.5 q-23.5 19.5 -50 40.5 q-26.5 21 -54.5 41.5 q-28 20.5 -53 38.5 l39 40 q24 -17 51.5 -36.5 q27.5 -19.5 54.5 -39.5 q27 -20 50.5 -38.5 q23.5 -18.5 40.5 -33.5 l-39 -47 ZM880 3 q0 -29 -8.5 -42.5 q-8.5 -13.5 -29.5 -20.5 q-22 -7 -60.5 -8 q-38.5 -1 -103.5 -1 q-2 11 -8 25.5 q-6 14.5 -13 25.5 q48 -2 87.5 -1.5 q39.5 0.5 50.5 1.5 q13 1 18 5 q5 4 5 16 l0 460 l-630 0 l0 -537 l-64 0 l0 593 l460 0 q21 31 43 69.5 q22 38.5 36 69.5 l70 -16 q-19 -32 -40 -64 q-21 -32 -41 -59 l228 0 l0 -516 ZM337 664 q17 -26 35.5 -58 q18.5 -32 28.5 -54 l-59 -25 q-11 22 -29 55 q-18 33 -35 61 l59 21 ZM936 726 l0 -58 l-871 0 l0 58 l419 0 q-8 23 -18.5 48.5 q-10.5 25.5 -21.5 47.5 l63 17 q13 -27 26.5 -57.5 q13.5 -30.5 23.5 -55.5 l379 0 Z" /><glyph glyph-name="" unicode="&#x5668;" d="M807 732 l-196 0 l0 -150 l196 0 l0 150 ZM871 524 l-321 0 l0 266 l321 0 l0 -266 ZM795 14 l0 157 l-188 0 l0 -157 l188 0 ZM384 171 l-177 0 l0 -157 l177 0 l0 157 ZM374 732 l-187 0 l0 -150 l187 0 l0 150 ZM667 360 q57 -48 136 -85 q79 -37 160 -57 q-11 -10 -22.5 -25.5 q-11.5 -15.5 -19.5 -27.5 q-16 5 -31 10 q-15 5 -31 11 l0 -256 l-64 0 l0 25 l-188 0 l0 -30 l-62 0 l0 305 l217 0 q-51 27 -96.5 60 q-45.5 33 -80.5 70 l-191 0 q-33 -35 -73.5 -68 q-40.5 -33 -89.5 -62 l217 0 l0 -300 l-64 0 l0 25 l-177 0 l0 -30 l-61 0 l0 259 q-18 -8 -35.5 -16 q-17.5 -8 -37.5 -16 q-4 12 -15 27 q-11 15 -21 23 q85 31 151.5 71.5 q66.5 40.5 117.5 86.5 l-251 0 l0 59 l310 0 q23 26 40 52.5 q17 26.5 30 52.5 l-308 0 l0 266 l311 0 l0 -260 l2 4 l68 -12 q-13 -26 -29 -52 q-16 -26 -35 -51 l294 0 q-25 17 -59.5 34 q-34.5 17 -66.5 29 l36 37 q38 -14 80 -34 q42 -20 67 -40 l-24 -26 l174 0 l0 -59 l-278 0 Z" /><glyph glyph-name="" unicode="&#x5728;" d="M386 614 q-25 -54 -55 -105 q-30 -51 -65 -99 l0 -482 l-67 0 l0 402 q-27 -30 -57 -57 q-30 -27 -64 -50 q-5 12 -15.5 29.5 q-10.5 17.5 -18.5 28.5 q88 63 154.5 149.5 q66.5 86.5 114.5 183.5 l-246 0 l0 64 l274 0 q17 39 30.5 78.5 q13.5 39.5 24.5 78.5 l68 -17 q-11 -35 -23.5 -70 q-12.5 -35 -26.5 -70 l521 0 l0 -64 l-549 0 ZM935 10 l0 -62 l-602 0 l0 62 l267 0 l0 292 l-228 0 l0 62 l228 0 l0 197 l66 0 l0 -197 l230 0 l0 -62 l-230 0 l0 -292 l269 0 Z" /><glyph glyph-name="" unicode="&#x5730;" d="M239 232 q29 13 58 25.5 q29 12.5 59 24.5 l14 -59 q-81 -37 -160.5 -72.5 q-79.5 -35.5 -145.5 -64.5 l-26 66 q29 10 64 24 q35 14 74 31 l0 325 l-130 0 l0 63 l130 0 l0 229 l63 0 l0 -229 l120 0 l0 -63 l-120 0 l0 -300 ZM823 8 q22 0 35.5 6 q13.5 6 22 22 q8.5 16 12 44.5 q3.5 28.5 6.5 72.5 q12 -9 29 -16.5 q17 -7.5 31 -10.5 q-4 -51 -11 -85 q-7 -34 -21.5 -54.5 q-14.5 -20.5 -39 -29.5 q-24.5 -9 -62.5 -9 l-252 0 q-42 0 -69 5.5 q-27 5.5 -43.5 19.5 q-16.5 14 -23 39 q-6.5 25 -6.5 63 l0 326 l-84 -36 l-26 58 l110 46 l0 275 l63 0 l0 -248 l144 61 l0 279 l63 0 l0 -253 l142 60 l15 13 l12 11 l47 -19 l-3 -13 q0 -70 -0.5 -132.5 q-0.5 -62.5 -2 -112.5 q-1.5 -50 -3.5 -84.5 q-2 -34.5 -5 -48.5 q-5 -30 -18.5 -44 q-13.5 -14 -35.5 -19 q-20 -5 -46 -5.5 q-26 -0.5 -46 -0.5 q-2 14 -6 30.5 q-4 16.5 -10 27.5 q19 -2 40.5 -2 q21.5 0 29.5 0 q11 0 19 5.5 q8 5.5 12 22.5 q2 10 3.5 36 q1.5 26 2.5 66 q1 40 1.5 91.5 q0.5 51.5 0.5 112.5 l-149 -63 l0 -370 l-63 0 l0 344 l-144 -61 l0 -353 q0 -20 3 -33 q3 -13 12 -20.5 q9 -7.5 24.5 -10.5 q15.5 -3 40.5 -3 l249 0 Z" /><glyph glyph-name="" unicode="&#x578b;" d="M888 381 q0 -29 -7.5 -44 q-7.5 -15 -28.5 -23 q-22 -8 -58 -9.5 q-36 -1.5 -90 -1.5 q-2 14 -8.5 30.5 q-6.5 16.5 -14.5 30.5 q45 -2 79 -2 q34 0 45 2 q12 1 15.5 4 q3.5 3 3.5 14 l0 448 l64 0 l0 -449 ZM700 447 l-61 0 l0 332 l61 0 l0 -332 ZM263 592 l130 0 l0 143 l-130 0 l0 -134 l0 -9 ZM259 532 q-4 -32 -14 -65 q-10 -33 -27.5 -64 q-17.5 -31 -43.5 -60 q-26 -29 -64 -53 q-7 9 -21 23.5 q-14 14.5 -23 22.5 q66 42 94 93 q28 51 36 103 l-124 0 l0 60 l129 0 l0 10 l0 133 l-96 0 l0 59 l448 0 l0 -59 l-97 0 l0 -143 l117 0 l0 -60 l-117 0 l0 -218 l-63 0 l0 218 l-134 0 ZM949 21 l0 -62 l-899 0 l0 62 l423 0 l0 135 l-319 0 l0 61 l319 0 l0 118 l67 0 l0 -118 l305 0 l0 -61 l-305 0 l0 -135 l409 0 Z" /><glyph glyph-name="" unicode="&#x57df;" d="M894 690 q-20 23 -55 54 q-35 31 -68 55 l39 34 q33 -23 68.5 -52 q35.5 -29 55.5 -52 l-40 -39 ZM333 193 q-69 -35 -139 -69 q-70 -34 -128 -63 l-26 66 q25 10 54 23 q29 13 61 27 l0 352 l-108 0 l0 63 l108 0 l0 232 l63 0 l0 -232 l93 0 l0 -63 l-93 0 l0 -323 l97 46 l18 -59 ZM655 136 q-91 -27 -180.5 -53.5 q-89.5 -26.5 -161.5 -46.5 l-19 63 q34 8 75 18.5 q41 10.5 87 22.5 q46 12 95 25.5 q49 13.5 98 26.5 l6 -56 ZM549 471 l-138 0 l0 -176 l138 0 l0 176 ZM604 526 l0 -286 l-246 0 l0 286 l246 0 ZM925 513 q-27 -99 -64 -184.5 q-37 -85.5 -85 -159.5 q19 -86 43 -133.5 q24 -47.5 53 -47.5 q15 0 23 33.5 q8 33.5 11 113.5 q11 -11 24 -20 q13 -9 24 -14 q-4 -50 -10 -83.5 q-6 -33.5 -16 -54 q-10 -20.5 -25 -29.5 q-15 -9 -38 -9 q-47 0 -80 46.5 q-33 46.5 -56 130.5 q-39 -49 -82.5 -91 q-43.5 -42 -94.5 -77 q-6 9 -22 22.5 q-16 13.5 -27 21.5 q62 39 113.5 89.5 q51.5 50.5 93.5 111.5 q-17 91 -27 203.5 q-10 112.5 -15 242.5 l-340 0 l0 61 l339 0 q-3 74 -3 149 l64 0 q0 -38 0 -75.5 q0 -37.5 1 -73.5 l215 0 l0 -61 l-214 0 q4 -106 11.5 -198 q7.5 -92 18.5 -168 q65 116 103 266 l62 -12 Z" /><glyph glyph-name="" unicode="&#x5907;" d="M244 299 l0 -109 l222 0 l0 109 l-222 0 ZM752 299 l-219 0 l0 -109 l219 0 l0 109 ZM752 16 l0 119 l-219 0 l0 -119 l219 0 ZM466 16 l0 119 l-222 0 l0 -119 l222 0 ZM176 358 l646 0 l0 -431 l-70 0 l0 31 l-508 0 l0 -33 l-68 0 l0 433 ZM327 679 q68 -75 173 -128 q57 29 106 64 q49 35 87 75 l-354 0 l-12 -11 ZM801 725 q-42 -62 -101.5 -113 q-59.5 -51 -131.5 -93 q88 -37 189.5 -62 q101.5 -25 209.5 -36 q-11 -11 -22 -29 q-11 -18 -18 -32 q-116 16 -224.5 46 q-108.5 30 -202.5 75 q-103 -50 -215 -83.5 q-112 -33.5 -220 -52.5 q-5 14 -13.5 33 q-8.5 19 -16.5 30 q98 14 200 41.5 q102 27.5 196 69.5 q-86 50 -150 117 q-64 -54 -153 -103 q-8 12 -21 26 q-13 14 -25 22 q108 52 180.5 121.5 q72.5 69.5 109.5 135.5 l70 -15 q-11 -18 -24 -36.5 q-13 -18.5 -28 -37.5 l356 0 l12 4 l43 -28 Z" /><glyph glyph-name="" unicode="&#x597d;" d="M205 568 q-14 -69 -30 -133 q-16 -64 -31 -119 q30 -20 60 -41.5 q30 -21.5 59 -44.5 q33 69 56 153 q23 84 34 185 l-148 0 ZM423 622 q-13 -137 -39.5 -243.5 q-26.5 -106.5 -67.5 -190.5 q36 -31 66.5 -60.5 q30.5 -29.5 50.5 -55.5 l-45 -56 q-19 26 -46 54 q-27 28 -60 57 q-42 -68 -94.5 -117 q-52.5 -49 -115.5 -84 q-7 12 -19 27.5 q-12 15.5 -23 24.5 q121 61 202 192 q-39 33 -80.5 63.5 q-41.5 30.5 -81.5 56.5 q18 55 36.5 127.5 q18.5 72.5 35.5 150.5 l-97 0 l0 62 l109 0 q11 54 19.5 106 q8.5 52 14.5 99 l64 -4 q-6 -47 -14.5 -98 q-8.5 -51 -19.5 -103 l152 0 l12 2 l41 -10 ZM955 348 l-224 0 l0 -342 q0 -31 -9 -47 q-9 -16 -32 -24 q-23 -8 -59 -10 q-36 -2 -94 -1 q-3 14 -10.5 31.5 q-7.5 17.5 -15.5 31.5 q46 -1 82.5 -1 q36.5 0 47.5 0 q13 1 17.5 5 q4.5 4 4.5 15 l0 342 l-235 0 l0 63 l235 0 l0 118 q40 32 80.5 78 q40.5 46 70.5 91 l-340 0 l0 61 l386 0 l16 4 l46 -33 q-36 -56 -87 -114.5 q-51 -58.5 -104 -103.5 l0 -101 l224 0 l0 -63 Z" /><glyph glyph-name="" unicode="&#x5982;" d="M240 568 q-15 -69 -31.5 -134 q-16.5 -65 -33.5 -120 q33 -23 67 -47.5 q34 -24.5 68 -50.5 q35 69 59.5 156 q24.5 87 35.5 196 l-165 0 ZM475 624 q-11 -146 -39.5 -256.5 q-28.5 -110.5 -73.5 -194.5 q35 -29 63.5 -56.5 q28.5 -27.5 48.5 -51.5 l-45 -55 q-18 24 -44.5 50.5 q-26.5 26.5 -58.5 54.5 q-46 -66 -104 -113 q-58 -47 -129 -79 q-8 13 -19 29 q-11 16 -22 27 q68 26 123 70 q55 44 100 110 q-42 35 -87 68.5 q-45 33.5 -87 62.5 q19 54 38.5 126.5 q19.5 72.5 36.5 151.5 l-125 0 l0 62 l139 0 q11 54 19.5 105.5 q8.5 51.5 14.5 99.5 l65 -5 q-7 -47 -16 -97.5 q-9 -50.5 -19 -102.5 l168 0 l12 2 l41 -8 ZM854 87 l0 577 l-258 0 l0 -577 l258 0 ZM919 727 l0 -763 l-65 0 l0 60 l-258 0 l0 -75 l-63 0 l0 778 l386 0 Z" /><glyph glyph-name="" unicode="&#x59cb;" d="M203 568 q-15 -69 -31 -134 q-16 -65 -31 -120 q56 -37 110 -81 q54 135 72 335 l-120 0 ZM389 625 q-19 -270 -88 -434 q34 -30 62 -58.5 q28 -28.5 48 -54.5 l-41 -54 q-17 24 -42.5 51 q-25.5 27 -55.5 55 q-36 -69 -83 -119 q-47 -50 -104 -85 q-7 13 -18 28 q-11 15 -22 25 q109 59 179 195 q-37 32 -76 61 q-39 29 -77 55 q18 54 36 126.5 q18 72.5 35 151.5 l-95 0 l0 62 l107 0 q10 54 18 104.5 q8 50.5 13 97.5 l63 -4 q-6 -47 -14.5 -96.5 q-8.5 -49.5 -18.5 -101.5 l124 0 l11 2 l39 -7 ZM527 266 l0 -238 l309 0 l0 238 l-309 0 ZM465 326 l435 0 l0 -399 l-64 0 l0 41 l-309 0 l0 -44 l-62 0 l0 402 ZM794 690 q26 -33 51 -69.5 q25 -36.5 47.5 -73.5 q22.5 -37 41 -72 q18.5 -35 30.5 -64 l-57 -28 q-6 15 -14.5 33 q-8.5 18 -18.5 37 q-141 -10 -224.5 -16.5 q-83.5 -6.5 -129 -10.5 q-45.5 -4 -63.5 -7.5 q-18 -3.5 -29 -7.5 q-2 11 -8.5 30.5 q-6.5 19.5 -13.5 33.5 q15 3 30 20 q15 17 35 45 q10 13 29.5 43 q19.5 30 42.5 70.5 q23 40.5 47.5 88 q24.5 47.5 43.5 95.5 l67 -21 q-42 -88 -90.5 -172 q-48.5 -84 -99.5 -153 l332 21 q-23 40 -49 79 q-26 39 -52 74 l52 25 Z" /><glyph glyph-name="" unicode="&#x5b89;" d="M165 522 l-67 0 l0 197 l370 0 q-11 24 -24 51 q-13 27 -25 50 l67 17 q16 -29 32 -61 q16 -32 27 -57 l357 0 l0 -197 l-69 0 l0 135 l-668 0 l0 -135 ZM384 383 q-43 -72 -83 -127 q55 -18 110.5 -38 q55.5 -20 111.5 -43 q90 83 138 208 l-277 0 ZM735 383 q-26 -72 -62 -129.5 q-36 -57.5 -83 -105.5 q94 -39 175.5 -79.5 q81.5 -40.5 140.5 -77.5 l-55 -58 q-57 38 -139 80.5 q-82 42.5 -179 84.5 q-79 -62 -179 -102 q-100 -40 -223 -68 q-5 12 -18 30.5 q-13 18.5 -24 29.5 q115 21 209 54.5 q94 33.5 167 84.5 q-68 28 -135.5 53 q-67.5 25 -132.5 45 l1 1 q26 32 53.5 72 q27.5 40 54.5 85 l-233 0 l0 64 l271 0 q25 43 45.5 84.5 q20.5 41.5 37.5 79.5 l69 -15 q-15 -35 -34 -73 q-19 -38 -40 -76 l508 0 l0 -64 l-195 0 Z" /><glyph glyph-name="" unicode="&#x5b9a;" d="M152 511 l-65 0 l0 211 l392 0 q-9 23 -22 50.5 q-13 27.5 -27 50.5 l65 18 q17 -28 34 -61.5 q17 -33.5 26 -57.5 l358 0 l0 -211 l-67 0 l0 147 l-694 0 l0 -147 ZM533 21 q39 -8 82.5 -11 q43.5 -3 89.5 -3 q12 0 46.5 0 q34.5 0 74.5 0 q40 0 76.5 0.5 q36.5 0.5 53.5 0.5 q-8 -13 -15.5 -33 q-7.5 -20 -9.5 -34 l-229 0 q-79 0 -147.5 8.5 q-68.5 8.5 -125.5 31.5 q-57 23 -103 65 q-46 42 -80 108 q-26 -72 -63 -130 q-37 -58 -88 -103 q-8 9 -25 23 q-17 14 -29 22 q85 66 128.5 170 q43.5 104 60.5 241 l67 -7 q-5 -35 -11 -67.5 q-6 -32.5 -13 -63.5 q30 -83 78.5 -129.5 q48.5 -46.5 113.5 -70.5 l0 425 l-254 0 l0 64 l585 0 l0 -64 l-263 0 l0 -170 l301 0 l0 -63 l-301 0 l0 -210 Z" /><glyph glyph-name="" unicode="&#x5b9e;" d="M161 521 l-66 0 l0 197 l392 0 q-11 24 -25 51.5 q-14 27.5 -29 50.5 l65 21 q20 -29 38 -63 q18 -34 29 -60 l342 0 l0 -197 l-69 0 l0 134 l-677 0 l0 -134 ZM390 441 q-11 13 -27.5 28.5 q-16.5 15.5 -36 31 q-19.5 15.5 -41 30 q-21.5 14.5 -41.5 26.5 l40 42 q20 -11 41 -24.5 q21 -13.5 41 -28.5 q20 -15 37.5 -29.5 q17.5 -14.5 29.5 -28.5 l-43 -47 ZM184 447 q21 -12 43.5 -26 q22.5 -14 44 -29 q21.5 -15 39.5 -30 q18 -15 30 -28 l-40 -50 q-12 14 -30 29.5 q-18 15.5 -39 31 q-21 15.5 -43.5 31 q-22.5 15.5 -43.5 27.5 l39 44 ZM572 165 q50 -19 100 -41.5 q50 -22.5 96.5 -46.5 q46.5 -24 87.5 -48 q41 -24 72 -47 l-43 -51 q-30 24 -69 48.5 q-39 24.5 -84 48.5 q-45 24 -93.5 47 q-48.5 23 -98.5 42 l32 48 ZM932 253 l0 -58 l-418 0 q-21 -48 -53 -89 q-32 -41 -79.5 -74 q-47.5 -33 -111 -59 q-63.5 -26 -147.5 -45 q-5 14 -16.5 30.5 q-11.5 16.5 -22.5 27.5 q74 15 131 35.5 q57 20.5 99.5 46.5 q42.5 26 72.5 57.5 q30 31.5 51 69.5 l-364 0 l0 58 l390 0 q25 70 32 156.5 q7 86.5 11 194.5 l69 0 q-3 -105 -11 -192 q-8 -87 -29 -159 l396 0 Z" /><glyph glyph-name="" unicode="&#x5ba2;" d="M146 562 l-65 0 l0 182 l402 0 q-10 20 -22.5 42 q-12.5 22 -24.5 41 l64 17 q16 -22 32 -49.5 q16 -27.5 28 -50.5 l359 0 l0 -182 l-67 0 l0 120 l-706 0 l0 -120 ZM751 230 q-134 37 -249 100 q-112 -61 -234 -100 l483 0 ZM706 17 l0 156 l-406 0 l0 -156 l406 0 ZM347 529 q30 -37 69 -68.5 q39 -31.5 87 -59.5 q49 29 90.5 61.5 q41.5 32.5 73.5 69.5 l-316 0 l-4 -3 ZM770 560 q-38 -56 -90 -104 q-52 -48 -115 -89 q87 -42 187 -69.5 q100 -27.5 208 -42.5 q-11 -11 -22 -29 q-11 -18 -19 -32 q-76 11 -146 30 l0 -297 l-67 0 l0 33 l-406 0 l0 -34 l-64 0 l0 293 q-42 -13 -82.5 -23 q-40.5 -10 -81.5 -19 q-5 14 -14 31 q-9 17 -18 28 q100 18 204 51 q104 33 196 80 q-40 27 -75 57 q-35 30 -64 65 q-35 -28 -75 -54 q-40 -26 -87 -49 q-8 11 -21 24.5 q-13 13.5 -24 21.5 q103 48 175 109.5 q72 61.5 110 119.5 l72 -13 q-11 -16 -22.5 -31 q-11.5 -15 -25.5 -31 l311 0 l12 3 l44 -29 Z" /><glyph glyph-name="" unicode="&#x5bb9;" d="M152 566 l-65 0 l0 176 l393 0 q-8 20 -20 42.5 q-12 22.5 -23 40.5 l68 17 q15 -23 29 -50 q14 -27 23 -50 l356 0 l0 -176 l-67 0 l0 114 l-694 0 l0 -114 ZM634 628 q35 -21 73 -45.5 q38 -24.5 73.5 -50.5 q35.5 -26 66 -51.5 q30.5 -25.5 51.5 -46.5 l-47 -45 q-20 22 -50 48 q-30 26 -65 53 q-35 27 -72.5 53 q-37.5 26 -72.5 47 l43 38 ZM397 608 q-25 -32 -56 -63 q-31 -31 -65 -59.5 q-34 -28.5 -69 -53.5 q-35 -25 -69 -45 q-8 10 -22 25.5 q-14 15.5 -25 25.5 q68 35 133.5 85 q65.5 50 110.5 106 l62 -21 ZM728 256 q-63 38 -118.5 84 q-55.5 46 -108.5 104 q-45 -53 -98.5 -100 q-53.5 -47 -114.5 -88 l440 0 ZM711 18 l0 178 l-424 0 l0 -178 l424 0 ZM556 516 q-5 -6 -9.5 -12.5 q-4.5 -6.5 -9.5 -13.5 q85 -97 191 -161.5 q106 -64.5 227 -113.5 q-12 -11 -24 -26 q-12 -15 -19 -29 q-35 15 -68.5 32 q-33.5 17 -65.5 34 l0 -298 l-67 0 l0 30 l-424 0 l0 -35 l-64 0 l0 293 q-67 -40 -138 -69 q-8 12 -19.5 27 q-11.5 15 -23.5 26 q69 26 135.5 62.5 q66.5 36.5 125.5 80.5 q59 44 109 94.5 q50 50.5 86 105.5 l58 -27 Z" /><glyph glyph-name="" unicode="&#x5c3e;" d="M205 728 l0 -119 l608 0 l0 119 l-608 0 ZM205 550 l0 -54 q0 -63 -3.5 -137 q-3.5 -74 -15 -149.5 q-11.5 -75.5 -33.5 -149 q-22 -73.5 -59 -134.5 q-10 8 -28 18.5 q-18 10.5 -30 15.5 q35 59 55.5 127.5 q20.5 68.5 31 139.5 q10.5 71 13.5 140 q3 69 3 128 l0 292 l741 0 l0 -237 l-675 0 ZM821 0 q17 0 27.5 4.5 q10.5 4.5 16.5 17 q6 12.5 9 34.5 q3 22 5 57 q12 -8 29.5 -15 q17.5 -7 31.5 -11 q-4 -43 -10.5 -72 q-6.5 -29 -19 -45.5 q-12.5 -16.5 -33 -23.5 q-20.5 -7 -52.5 -7 l-209 0 q-37 0 -62 4.5 q-25 4.5 -39.5 16.5 q-14.5 12 -20.5 32.5 q-6 20.5 -6 51.5 l0 82 l-262 -41 l-10 56 l272 42 l0 98 l-227 -35 l-11 54 l238 38 l0 91 q-54 -10 -108 -17.5 q-54 -7.5 -105 -14.5 q-2 11 -8 25 q-6 14 -11 24 q63 8 130 19 q67 11 129.5 23.5 q62.5 12.5 117.5 26.5 q55 14 94 29 l57 -44 q-48 -17 -107 -31.5 q-59 -14.5 -124 -27.5 l0 -94 l287 44 l10 -54 l-297 -46 l0 -98 l358 56 l10 -55 l-368 -58 l0 -91 q0 -28 12 -36.5 q12 -8.5 54 -8.5 l202 0 Z" /><glyph glyph-name="" unicode="&#x5e08;" d="M161 240 l-60 0 l0 481 l60 0 l0 -481 ZM259 835 l62 0 l0 -399 q0 -73 -5.5 -143.5 q-5.5 -70.5 -22.5 -135.5 q-17 -65 -50 -123.5 q-33 -58.5 -88 -108.5 q-8 11 -23 23.5 q-15 12.5 -27 19.5 q51 47 81.5 101 q30.5 54 46.5 113.5 q16 59.5 21 123.5 q5 64 5 131 l0 398 ZM687 721 l0 -129 l216 0 l0 -445 q0 -25 -6 -38.5 q-6 -13.5 -23 -21.5 q-17 -8 -44 -10 q-27 -2 -68 -2 q-2 14 -8 30 q-6 16 -13 29 q31 -1 54 -1 q23 0 31 0 q9 0 12 3.5 q3 3.5 3 11.5 l0 384 l-154 0 l0 -606 l-63 0 l0 606 l-142 0 l0 -465 l-61 0 l0 525 l203 0 l0 129 l-240 0 l0 61 l560 0 l0 -61 l-257 0 Z" /><glyph glyph-name="" unicode="&#x5e26;" d="M83 500 l836 0 l0 -200 l-67 0 l0 142 l-321 0 l0 -118 l293 0 l0 -237 q0 -26 -7 -40.5 q-7 -14.5 -27 -22.5 q-20 -8 -54.5 -9 q-34.5 -1 -87.5 -1 q-2 14 -7.5 29.5 q-5.5 15.5 -13.5 29.5 q42 -2 72 -2 q30 0 41 1 q11 1 14 4 q3 3 3 12 l0 177 l-226 0 l0 -341 l-68 0 l0 341 l-205 0 l0 -252 l-66 0 l0 311 l271 0 l0 118 l-316 0 l0 -142 l-64 0 l0 200 ZM947 713 l0 -58 l-162 0 l0 -107 l-66 0 l0 107 l-188 0 l0 -103 l-66 0 l0 103 l-179 0 l0 -105 l-66 0 l0 105 l-165 0 l0 58 l165 0 l0 117 l66 0 l0 -117 l179 0 l0 117 l66 0 l0 -117 l188 0 l0 117 l66 0 l0 -117 l162 0 Z" /><glyph glyph-name="" unicode="&#x5e38;" d="M834 802 q-24 -33 -51 -65.5 q-27 -32.5 -50 -55.5 l-53 22 q22 26 46.5 61.5 q24.5 35.5 39.5 62.5 l68 -25 ZM307 389 l392 0 l0 104 l-392 0 l0 -104 ZM855 41 q0 -27 -7 -42 q-7 -15 -29 -23 q-23 -8 -61.5 -9 q-38.5 -1 -97.5 -1 q-3 14 -9.5 30 q-6.5 16 -13.5 30 q47 -2 83 -2 q36 0 48 1 q20 1 20 16 l0 149 l-242 0 l0 -266 l-67 0 l0 266 l-256 0 l0 -221 l-67 0 l0 282 l323 0 l0 86 l-235 0 l0 207 l522 0 l0 -207 l-220 0 l0 -86 l309 0 l0 -210 ZM233 826 q25 -28 49 -61 q24 -33 37 -58 l-63 -29 q-11 25 -35 59.5 q-24 34.5 -47 63.5 l59 25 ZM917 678 l0 -210 l-66 0 l0 151 l-696 0 l0 -151 l-64 0 l0 210 l382 0 l0 158 l68 0 l0 -158 l376 0 Z" /><glyph glyph-name="" unicode="&#x5e76;" d="M327 633 q-6 18 -17.5 40 q-11.5 22 -25.5 45.5 q-14 23.5 -30 47 q-16 23.5 -32 44.5 l60 26 q17 -20 33.5 -43 q16.5 -23 31 -46.5 q14.5 -23.5 26 -45.5 q11.5 -22 18.5 -40 l-64 -28 ZM646 342 l0 223 l-288 0 l0 -196 l0 -27 l288 0 ZM945 278 l-230 0 l0 -354 l-69 0 l0 354 l-292 0 q-5 -51 -18.5 -100 q-13.5 -49 -42 -95 q-28.5 -46 -74 -88 q-45.5 -42 -114.5 -77 q-8 12 -22 28 q-14 16 -25 24 q62 32 103 68 q41 36 67 75 q26 39 39 80.5 q13 41.5 18 84.5 l-229 0 l0 64 l234 0 l0 28 l0 195 l-196 0 l0 64 l520 0 q13 23 26 49.5 q13 26.5 25.5 54 q12.5 27.5 23.5 54.5 q11 27 19 51 l75 -23 q-23 -47 -48 -95.5 q-25 -48.5 -50 -90.5 l228 0 l0 -64 l-198 0 l0 -223 l230 0 l0 -64 Z" /><glyph glyph-name="" unicode="&#x5e93;" d="M190 671 l0 -225 q0 -58 -3.5 -126.5 q-3.5 -68.5 -14 -138.5 q-10.5 -70 -29.5 -138 q-19 -68 -51 -124 q-9 9 -27 21.5 q-18 12.5 -29 17.5 q30 53 47.5 115.5 q17.5 62.5 26.5 127 q9 64.5 11.5 128 q2.5 63.5 2.5 117.5 l0 288 l395 0 q-10 20 -22 42 q-12 22 -26 40 l63 19 q18 -23 34 -50.5 q16 -27.5 26 -50.5 l354 0 l0 -63 l-758 0 ZM950 83 l-289 0 l0 -158 l-66 0 l0 158 l-364 0 l0 61 l364 0 l0 121 l-177 0 q-77 0 -93 -14 q-2 11 -8.5 31 q-6.5 20 -13.5 34 q12 3 25.5 18.5 q13.5 15.5 28.5 40.5 q8 13 24.5 42 q16.5 29 36.5 68 l-158 0 l0 61 l187 0 q11 24 21 49 q10 25 18 51 l68 -24 q-16 -37 -35 -76 l388 0 l0 -61 l-417 0 q-23 -44 -46.5 -84.5 q-23.5 -40.5 -47.5 -75.5 l199 0 l0 109 l66 0 l0 -109 l224 0 l0 -60 l-224 0 l0 -121 l289 0 l0 -61 Z" /><glyph glyph-name="" unicode="&#x5efa;" d="M655 693 l0 -78 l156 0 l0 78 l-156 0 ZM811 560 l-156 0 l0 -80 l156 0 l0 80 ZM592 693 l-196 0 l0 54 l196 0 l0 83 l63 0 l0 -83 l216 0 l0 -132 l72 0 l0 -55 l-72 0 l0 -134 l-216 0 l0 -81 l237 0 l0 -52 l-237 0 l0 -87 l275 0 l0 -55 l-275 0 l0 -105 l-63 0 l0 105 l-253 0 l0 55 l253 0 l0 87 l-211 0 l0 52 l211 0 l0 81 l-204 0 l0 54 l204 0 l0 80 l-263 0 l0 55 l263 0 l0 78 ZM332 486 q-11 -106 -33.5 -193.5 q-22.5 -87.5 -53.5 -156.5 q36 -38 80.5 -62.5 q44.5 -24.5 96.5 -38.5 q52 -14 111 -19 q59 -5 124 -5 q14 0 56 0 q42 0 90.5 0 q48.5 0 92.5 0.5 q44 0.5 62 0.5 q-8 -11 -15.5 -29.5 q-7.5 -18.5 -10.5 -32.5 l-276 0 q-70 0 -132.5 5.5 q-62.5 5.5 -117.5 20.5 q-55 15 -102.5 40.5 q-47.5 25.5 -86.5 64.5 q-27 -48 -58.5 -84.5 q-31.5 -36.5 -67.5 -65.5 q-8 10 -23 24.5 q-15 14.5 -26 21.5 q77 55 132 154 q-28 38 -50 85 q-22 47 -40 107 l50 20 q14 -47 31 -84.5 q17 -37.5 37 -68.5 q21 52 37 112.5 q16 60.5 26 132.5 l-162 0 q16 27 34.5 60.5 q18.5 33.5 37.5 69.5 q19 36 37.5 73.5 q18.5 37.5 35.5 73.5 l-180 0 l0 60 l276 0 q-32 -66 -70 -140.5 q-38 -74.5 -71 -136.5 l80 0 l12 1 l37 -10 Z" /><glyph glyph-name="" unicode="&#x5f00;" d="M652 414 l0 291 l-287 0 l0 -246 q0 -11 0 -22.5 q0 -11.5 -1 -22.5 l288 0 ZM945 350 l-225 0 l0 -427 l-68 0 l0 427 l-291 0 q-5 -59 -18.5 -117 q-13.5 -58 -42 -113 q-28.5 -55 -74.5 -105.5 q-46 -50.5 -115 -93.5 q-8 11 -23.5 25.5 q-15.5 14.5 -28.5 22.5 q64 40 106.5 85 q42.5 45 69.5 93.5 q27 48.5 40 99.5 q13 51 18 103 l-237 0 l0 64 l241 0 q1 11 1 22.5 q0 11.5 0 22.5 l0 246 l-204 0 l0 64 l819 0 l0 -64 l-193 0 l0 -291 l225 0 l0 -64 Z" /><glyph glyph-name="" unicode="&#x5f15;" d="M545 340 q0 -6 -1 -12 q0 -5 -0.5 -10.5 q-0.5 -5.5 -0.5 -8.5 q-7 -85 -13.5 -145 q-6.5 -60 -14.5 -101 q-8 -41 -18 -65 q-10 -24 -22 -36 q-16 -17 -33 -22.5 q-17 -5.5 -43 -7.5 q-24 -2 -67 -1 q-43 1 -91 4 q-1 16 -7 34.5 q-6 18.5 -17 32.5 q51 -5 95.5 -5.5 q44.5 -0.5 62.5 -0.5 q17 0 26 1.5 q9 1.5 17 8.5 q9 8 17 26.5 q8 18.5 14.5 51 q6.5 32.5 12 80.5 q5.5 48 11.5 114 l-380 0 q7 29 14.5 64 q7.5 35 14.5 73 q7 38 13.5 76 q6.5 38 11.5 72 l328 0 l0 168 l-367 0 l0 63 l432 0 l0 -293 l-335 0 q-8 -42 -15.5 -83 q-7.5 -41 -15.5 -78 l371 0 ZM851 826 l0 -902 l-66 0 l0 902 l66 0 Z" /><glyph glyph-name="" unicode="&#x5f55;" d="M867 328 q-45 -39 -98 -79 q-53 -40 -101 -70 q57 -54 128 -94.5 q71 -40.5 154 -63.5 q-11 -10 -23.5 -26.5 q-12.5 -16.5 -19.5 -30.5 q-120 38 -214 111 q-94 73 -159 176 l0 -252 q0 -30 -8.5 -44.5 q-8.5 -14.5 -31.5 -22.5 q-23 -7 -60.5 -8.5 q-37.5 -1.5 -95.5 -0.5 q-3 13 -10 29 q-7 16 -14 30 q46 -2 83 -2.5 q37 -0.5 48 0.5 q13 1 17.5 5 q4.5 4 4.5 15 l0 150 q-95 -43 -189 -83.5 q-94 -40.5 -169 -72.5 l-35 59 q36 14 82 32 q46 18 97 38.5 q51 20.5 105.5 43.5 q54.5 23 108.5 45 l0 187 l-397 0 l0 59 l661 0 q2 23 3 48 q1 25 3 51 l-569 0 l0 61 l573 0 q2 26 2.5 51.5 q0.5 25.5 1.5 47.5 l-605 0 l0 61 l614 0 l12 4 l51 -4 q-1 -35 -2.5 -75 q-1.5 -40 -4 -81.5 q-2.5 -41.5 -5.5 -83.5 q-3 -42 -6 -80 l138 0 l0 -59 l-403 0 l0 -32 q18 -40 41.5 -76.5 q23.5 -36.5 52.5 -70.5 q23 16 48 35 q25 19 49.5 38.5 q24.5 19.5 46.5 38.5 q22 19 39 37 l56 -41 ZM322 190 q-14 15 -35 32 q-21 17 -45.5 34.5 q-24.5 17.5 -50.5 34.5 q-26 17 -50 31 l44 40 q24 -13 50 -29 q26 -16 50.5 -33 q24.5 -17 46 -33.5 q21.5 -16.5 36.5 -30.5 l-46 -46 Z" /><glyph glyph-name="" unicode="&#x6211;" d="M862 603 q-12 18 -30 39.5 q-18 21.5 -39.5 44 q-21.5 22.5 -44.5 45.5 q-23 23 -46 42 l51 34 q22 -18 45.5 -40 q23.5 -22 45.5 -44 q22 -22 40.5 -43.5 q18.5 -21.5 31.5 -38.5 l-54 -39 ZM892 403 q-34 -64 -78 -124 q-44 -60 -97 -114 q29 -84 64 -130.5 q35 -46.5 76 -46.5 q21 0 31.5 42 q10.5 42 15.5 139 q11 -10 26.5 -20 q15.5 -10 29.5 -15 q-4 -61 -11.5 -102 q-7.5 -41 -20.5 -66 q-13 -25 -31.5 -35 q-18.5 -10 -45.5 -10 q-60 0 -106.5 51 q-46.5 51 -81.5 141 q-101 -89 -215 -151 q-8 13 -21.5 27.5 q-13.5 14.5 -25.5 25.5 q129 64 239 166 q-36 127 -56 295 l-241 0 l0 -169 q45 10 90.5 20 q45.5 10 91.5 21 l5 -60 l-187 -44 l0 -231 q0 -35 -9.5 -52 q-9.5 -17 -31.5 -25 q-23 -8 -63 -11 q-40 -3 -102 -2 q-2 14 -9.5 33.5 q-7.5 19.5 -15.5 33.5 q49 -2 88.5 -1.5 q39.5 0.5 52.5 1.5 q14 0 19 4.5 q5 4.5 5 18.5 l0 215 q-58 -14 -112 -26 q-54 -12 -100 -23 l-19 67 q46 8 105.5 20.5 q59.5 12.5 125.5 27.5 l0 182 l-218 0 l0 63 l218 0 l0 169 q-48 -10 -95.5 -18 q-47.5 -8 -93.5 -15 q-2 12 -8.5 27.5 q-6.5 15.5 -12.5 27.5 q52 8 107 18.5 q55 10.5 107.5 22.5 q52.5 12 99 25 q46.5 13 81.5 26 l48 -55 q-36 -12 -78 -23.5 q-42 -11.5 -89 -22.5 l0 -182 l234 0 q-6 69 -9.5 141 q-3.5 72 -4.5 147 l69 0 q0 -77 3 -148.5 q3 -71.5 10 -139.5 l297 0 l0 -63 l-290 0 q8 -68 18.5 -127.5 q10.5 -59.5 24.5 -112.5 q42 45 77 93 q35 48 61 99 l59 -25 Z" /><glyph glyph-name="" unicode="&#x6216;" d="M863 680 q-13 13 -33 27.5 q-20 14.5 -43.5 29.5 q-23.5 15 -48.5 28.5 q-25 13.5 -48 24.5 l38 41 q23 -10 48 -23 q25 -13 48.5 -27 q23.5 -14 44 -28 q20.5 -14 34.5 -27 l-40 -46 ZM511 90 q-57 -13 -115.5 -26 q-58.5 -13 -114 -25 q-55.5 -12 -107 -23 q-51.5 -11 -94.5 -20 l-14 67 q41 8 92 18 q51 10 108 21.5 q57 11.5 118 24 q61 12.5 122 25.5 l5 -62 ZM407 457 l-214 0 l0 -184 l214 0 l0 184 ZM472 515 l0 -300 l-340 0 l0 300 l340 0 ZM890 517 q-66 -202 -178 -350 q28 -82 63 -128 q35 -46 76 -46 q22 0 33 43 q11 43 15 143 q11 -11 27.5 -21.5 q16.5 -10.5 30.5 -14.5 q-4 -64 -12 -106 q-8 -42 -21 -67 q-13 -25 -32 -35.5 q-19 -10.5 -47 -10.5 q-59 0 -104.5 48 q-45.5 48 -80.5 133 q-48 -53 -103 -98 q-55 -45 -118 -81 q-7 10 -23.5 26 q-16.5 16 -27.5 25 q73 38 134 88.5 q61 50.5 113 111.5 q-27 89 -44.5 198 q-17.5 109 -26.5 233 l-492 0 l0 66 l489 0 q-2 39 -3 78.5 q-1 39.5 -2 80.5 l71 0 q0 -82 3 -159 l301 0 l0 -66 l-298 0 q8 -104 21.5 -196 q13.5 -92 33.5 -167 q86 129 137 288 l65 -16 Z" /><glyph glyph-name="" unicode="&#x6253;" d="M423 349 l-152 -47 l0 -285 q0 -31 -8 -46 q-8 -15 -26 -23 q-20 -8 -51.5 -10.5 q-31.5 -2.5 -83.5 -2.5 q-2 14 -8 31.5 q-6 17.5 -13 31.5 q37 -1 66 -1 q29 0 38 0 q20 0 20 20 l0 264 q-38 -12 -73.5 -22 q-35.5 -10 -67.5 -20 l-21 67 q34 8 75 19 q41 11 87 25 l0 219 l-153 0 l0 63 l153 0 l0 203 l66 0 l0 -203 l142 0 l0 -63 l-142 0 l0 -201 l143 41 l9 -60 ZM957 684 l-180 0 l0 -659 q0 -36 -10.5 -54.5 q-10.5 -18.5 -36.5 -27.5 q-26 -10 -73 -11.5 q-47 -1.5 -119 -1.5 q-2 15 -10 36 q-8 21 -17 36 q28 -1 55 -1.5 q27 -0.5 49.5 -0.5 q22.5 0 39.5 0 q17 0 25 1 q14 0 20.5 5.5 q6.5 5.5 6.5 19.5 l0 658 l-290 0 l0 66 l540 0 l0 -66 Z" /><glyph glyph-name="" unicode="&#x6267;" d="M245 298 l0 -291 q0 -29 -8 -44.5 q-8 -15.5 -25 -24.5 q-17 -8 -46.5 -11 q-29.5 -3 -77.5 -2 q-2 13 -7.5 31.5 q-5.5 18.5 -12.5 32.5 q33 -1 60 -1 q27 0 35 0 q10 0 14 4 q4 4 4 15 l0 270 l-125 -40 l-19 64 q30 8 66 19 q36 11 78 24 l0 217 l-129 0 l0 62 l129 0 l0 212 l64 0 l0 -212 l105 0 l0 -62 l-105 0 l0 -198 l109 34 l9 -61 l-118 -38 ZM822 619 q-3 -156 -4.5 -274 q-1.5 -118 3 -197 q4.5 -79 16.5 -119 q12 -40 35 -40 q14 0 20.5 29 q6.5 29 9.5 105 q11 -9 27 -17 q16 -8 28 -13 q-3 -49 -9 -81.5 q-6 -32.5 -16.5 -51.5 q-10.5 -19 -26 -27 q-15.5 -8 -37.5 -8 q-47 0 -71 43 q-24 43 -34 124.5 q-10 81.5 -9.5 199 q0.5 117.5 1.5 266.5 l-162 0 q-2 -65 -7.5 -122.5 q-5.5 -57.5 -14.5 -109.5 q49 -29 93 -58 q44 -29 73 -52 l-38 -53 q-26 21 -62.5 46.5 q-36.5 25.5 -78.5 52.5 q-28 -109 -83 -192.5 q-55 -83.5 -153 -147.5 q-5 10 -20 27 q-15 17 -26 27 q96 56 148 135 q52 79 78 186 q-32 20 -63.5 37.5 q-31.5 17.5 -60.5 34.5 l37 45 q23 -13 47.5 -26.5 q24.5 -13.5 50.5 -28.5 q8 46 11.5 95.5 q3.5 49.5 5.5 103.5 l-156 0 l0 61 l157 0 q1 51 0.5 104.5 q-0.5 53.5 -2.5 112.5 l66 1 q1 -116 0 -218 l227 0 Z" /><glyph glyph-name="" unicode="&#x6307;" d="M390 343 l-135 -42 l0 -296 q0 -30 -8 -45 q-8 -15 -26 -23 q-19 -8 -49.5 -10.5 q-30.5 -2.5 -80.5 -1.5 q-2 12 -8 29.5 q-6 17.5 -13 31.5 q35 -1 63.5 -1 q28.5 0 37.5 0 q10 1 14.5 4.5 q4.5 3.5 4.5 14.5 l0 277 l-134 -41 l-20 65 q32 8 71 19 q39 11 83 24 l0 221 l-142 0 l0 63 l142 0 l0 203 l65 0 l0 -203 l120 0 l0 -63 l-120 0 l0 -202 q31 10 62.5 19 q31.5 9 63.5 19 l9 -62 ZM506 300 l0 -106 l337 0 l0 106 l-337 0 ZM843 27 l0 112 l-337 0 l0 -112 l337 0 ZM443 358 l466 0 l0 -429 l-66 0 l0 42 l-337 0 l0 -46 l-63 0 l0 433 ZM818 507 q21 0 34 4.5 q13 4.5 20.5 18 q7.5 13.5 11 38.5 q3.5 25 5.5 66 q12 -8 30 -15.5 q18 -7.5 32 -10.5 q-4 -49 -11 -80.5 q-7 -31.5 -21 -49.5 q-14 -18 -37.5 -25 q-23.5 -7 -59.5 -7 l-239 0 q-41 0 -68.5 4.5 q-27.5 4.5 -43.5 15.5 q-16 11 -22.5 30.5 q-6.5 19.5 -6.5 50.5 l0 284 l66 0 l0 -152 q45 10 91.5 21 q46.5 11 90 23 q43.5 12 81.5 25 q38 13 66 25 l52 -49 q-37 -15 -83 -29 q-46 -14 -96 -26.5 q-50 -12.5 -101.5 -24 q-51.5 -11.5 -100.5 -20.5 l0 -77 q0 -13 3 -20.5 q3 -7.5 11 -12 q8 -4.5 23.5 -6 q15.5 -1.5 39.5 -1.5 l233 0 Z" /><glyph glyph-name="" unicode="&#x636e;" d="M352 338 q-29 -11 -58 -20.5 q-29 -9.5 -58 -18.5 l0 -290 q0 -29 -7.5 -44 q-7.5 -15 -24.5 -23 q-17 -8 -46 -10.5 q-29 -2.5 -77 -1.5 q-2 12 -7.5 29.5 q-5.5 17.5 -12.5 31.5 q34 -1 60.5 -1 q26.5 0 34.5 1 q10 0 14 3.5 q4 3.5 4 14.5 l0 269 l-122 -40 l-18 64 q29 8 64.5 19 q35.5 11 75.5 24 l0 225 l-127 0 l0 62 l127 0 l0 203 l62 0 l0 -203 l115 0 l0 -62 l-115 0 l0 -206 l107 34 l9 -60 ZM665 426 l0 114 l-202 0 l0 -48 q0 -16 0 -32.5 q0 -16.5 -1 -33.5 l203 0 ZM463 733 l0 -135 l393 0 l0 135 l-393 0 ZM861 182 l-319 0 l0 -160 l319 0 l0 160 ZM728 367 l0 -128 l194 0 l0 -312 l-61 0 l0 39 l-319 0 l0 -43 l-59 0 l0 316 l182 0 l0 128 l-205 0 q-3 -55 -10.5 -114 q-7.5 -59 -21.5 -116 q-14 -57 -35.5 -111.5 q-21.5 -54.5 -53.5 -100.5 q-8 9 -25 20.5 q-17 11.5 -28 16.5 q39 58 61 125.5 q22 67.5 33.5 137.5 q11.5 70 14.5 138.5 q3 68.5 3 128.5 l0 299 l521 0 l0 -251 l-191 0 l0 -114 l226 0 l0 -59 l-226 0 Z" /><glyph glyph-name="" unicode="&#x63a5;" d="M921 669 l-536 0 l0 59 l232 0 q-11 22 -23 45.5 q-12 23.5 -26 43.5 l61 11 q16 -23 32 -50 q16 -27 27 -50 l233 0 l0 -59 ZM533 502 q-11 26 -31.5 63.5 q-20.5 37.5 -43.5 67.5 l50 21 q23 -29 44.5 -65 q21.5 -36 32.5 -62 l-52 -25 ZM947 437 l-598 0 l0 58 l335 0 q11 17 23.5 37 q12.5 20 24.5 41.5 q12 21.5 22.5 42 q10.5 20.5 17.5 38.5 l63 -17 q-20 -36 -41.5 -73.5 q-21.5 -37.5 -43.5 -68.5 l197 0 l0 -58 ZM228 296 l0 -291 q0 -28 -7 -43 q-7 -15 -24 -23 q-17 -8 -44 -10.5 q-27 -2.5 -71 -1.5 q-2 12 -7.5 30 q-5.5 18 -12.5 32 q31 -2 55 -2 q24 0 32 1 q17 0 17 17 l0 271 q-31 -11 -60.5 -20.5 q-29.5 -9.5 -55.5 -17.5 l-18 63 q28 8 62 18.5 q34 10.5 72 23.5 l0 227 l-121 0 l0 62 l121 0 l0 203 l62 0 l0 -203 l104 0 l0 -62 l-104 0 l0 -208 l91 30 l10 -61 l-101 -35 ZM559 266 q-16 -26 -32 -51 q-16 -25 -31 -47 q42 -14 85.5 -29.5 q43.5 -15.5 87.5 -33.5 q69 62 99 161 l-209 0 ZM836 266 q-16 -58 -41 -104.5 q-25 -46.5 -62 -83.5 q58 -25 109 -52 q51 -27 89 -53 l-44 -51 q-38 26 -91.5 55.5 q-53.5 29.5 -115.5 57.5 q-60 -40 -140.5 -66 q-80.5 -26 -189.5 -42 q-4 14 -12 30 q-8 16 -16 27 q94 11 165.5 30 q71.5 19 124.5 50 q-52 22 -105 41 q-53 19 -104 34 q21 26 43 58.5 q22 32.5 45 68.5 l-154 0 l0 58 l188 0 q16 27 29 54.5 q13 27.5 24 52.5 l62 -13 q-21 -45 -47 -94 l366 0 l0 -58 l-123 0 Z" /><glyph glyph-name="" unicode="&#x63a8;" d="M239 364 l107 34 l10 -61 q-60 -19 -117 -39 l0 -290 q0 -30 -7.5 -45.5 q-7.5 -15.5 -25.5 -24.5 q-17 -8 -46.5 -10.5 q-29.5 -2.5 -77.5 -1.5 q-2 13 -8 31.5 q-6 18.5 -13 32.5 q34 -1 61 -1 q27 0 35 1 q9 0 13.5 3.5 q4.5 3.5 4.5 14.5 l0 269 l-121 -40 l-18 64 q29 8 64 19 q35 11 75 23 l0 229 l-131 0 l0 62 l131 0 l0 201 l64 0 l0 -201 l115 0 l0 -62 l-115 0 l0 -208 ZM495 57 l176 0 l0 142 l-176 0 l0 -142 ZM671 594 l-176 0 l0 -136 l176 0 l0 136 ZM671 398 l-176 0 l0 -139 l176 0 l0 139 ZM949 -5 l-454 0 l0 -71 l-64 0 l0 594 q-20 -33 -41.5 -63.5 q-21.5 -30.5 -43.5 -56.5 q-8 9 -23.5 24 q-15.5 15 -26.5 23 q65 70 118.5 171.5 q53.5 101.5 87.5 212.5 l62 -16 q-13 -40 -28 -79.5 q-15 -39.5 -32 -77.5 l207 0 q-9 31 -29 72.5 q-20 41.5 -42 75.5 l57 23 q23 -35 44 -75.5 q21 -40.5 31 -70.5 l-55 -25 l212 0 l0 -62 l-195 0 l0 -136 l179 0 l0 -60 l-179 0 l0 -139 l178 0 l0 -60 l-178 0 l0 -142 l215 0 l0 -62 Z" /><glyph glyph-name="" unicode="&#x63d0;" d="M814 750 l-342 0 l0 -84 l342 0 l0 84 ZM814 618 l-342 0 l0 -86 l342 0 l0 86 ZM877 481 l-466 0 l0 321 l466 0 l0 -321 ZM344 336 q-28 -10 -55.5 -19 q-27.5 -9 -55.5 -19 l0 -289 q0 -29 -7.5 -44 q-7.5 -15 -24.5 -23 q-17 -8 -46.5 -10.5 q-29.5 -2.5 -77.5 -1.5 q-2 12 -7.5 29.5 q-5.5 17.5 -11.5 31.5 q33 -1 60 -1 q27 0 35 1 q10 0 14 3.5 q4 3.5 4 14.5 l0 268 q-32 -11 -62.5 -20.5 q-30.5 -9.5 -57.5 -18.5 l-18 64 q29 9 64 19.5 q35 10.5 74 22.5 l0 226 l-126 0 l0 62 l126 0 l0 202 l62 0 l0 -202 l112 0 l0 -62 l-112 0 l0 -206 l103 33 l8 -61 ZM674 6 q23 -4 48 -5.5 q25 -1.5 51 -1.5 q9 0 35.5 0 q26.5 0 57 0 q30.5 0 59 0.5 q28.5 0.5 40.5 0.5 q-7 -11 -12.5 -28.5 q-5.5 -17.5 -7.5 -31.5 l-174 0 q-55 0 -103 7 q-48 7 -87.5 25.5 q-39.5 18.5 -71.5 52 q-32 33.5 -56 87.5 q-21 -58 -51 -105 q-30 -47 -72 -83 q-8 8 -23.5 20.5 q-15.5 12.5 -26.5 19.5 q69 54 104.5 137.5 q35.5 83.5 47.5 196.5 l62 -8 q-4 -29 -8.5 -55.5 q-4.5 -26.5 -11.5 -51.5 q23 -68 57.5 -105.5 q34.5 -37.5 80.5 -55.5 l0 326 l-246 0 l0 56 l567 0 l0 -56 l-259 0 l0 -123 l211 0 l0 -55 l-211 0 l0 -164 Z" /><glyph glyph-name="" unicode="&#x642d;" d="M474 672 l-141 0 l0 59 l141 0 l0 103 l63 0 l0 -103 l204 0 l0 103 l63 0 l0 -103 l144 0 l0 -59 l-144 0 l0 -99 l-63 0 l0 99 l-204 0 l0 -99 l-63 0 l0 99 ZM485 191 l0 -172 l316 0 l0 172 l-316 0 ZM422 248 l444 0 l0 -325 l-65 0 l0 39 l-316 0 l0 -39 l-63 0 l0 325 ZM684 591 q-5 -8 -10 -14.5 q-5 -6.5 -10 -14.5 q25 -24 59.5 -51.5 q34.5 -27.5 74.5 -54 q40 -26.5 82.5 -51 q42.5 -24.5 82.5 -42.5 q-11 -8 -24 -24 q-13 -16 -22 -27 q-29 15 -60.5 34.5 q-31.5 19.5 -61.5 40.5 l0 -55 l-313 0 l0 57 l310 0 q-48 33 -90.5 67.5 q-42.5 34.5 -74.5 63.5 q-55 -61 -125 -115 q-70 -54 -148 -96 q-6 8 -18.5 21.5 q-12.5 13.5 -23.5 22.5 l-72 -34 l0 -310 q0 -29 -7.5 -44.5 q-7.5 -15.5 -25.5 -24.5 q-17 -8 -46.5 -10.5 q-29.5 -2.5 -77.5 -1.5 q-2 13 -7.5 31 q-5.5 18 -12.5 32 q33 -1 60 -1 q27 0 35 1 q10 0 14 3.5 q4 3.5 4 14.5 l0 282 l-106 -48 l-20 67 q26 9 58 22.5 q32 13.5 68 28.5 l0 209 l-123 0 l0 62 l123 0 l0 203 l64 0 l0 -203 l92 0 l0 -62 l-92 0 l0 -181 l89 40 l12 -55 q88 49 162.5 112 q74.5 63 119.5 126 l61 -21 Z" /><glyph glyph-name="" unicode="&#x6539;" d="M429 185 q1 -15 4 -33 q3 -18 6 -29 q-109 -42 -174 -67.5 q-65 -25.5 -101 -41 q-36 -15.5 -50.5 -23.5 q-14.5 -8 -22.5 -15 q-3 14 -11 34.5 q-8 20.5 -16 34.5 q11 4 20.5 15.5 q9.5 11.5 9.5 37.5 l0 381 l271 0 l0 220 l-284 0 l0 65 l349 0 l0 -350 l-269 0 l0 -326 l268 97 ZM593 577 q18 -93 45 -176.5 q27 -83.5 65 -156.5 q38 72 64 156.5 q26 84.5 42 187.5 l-212 0 l-4 -11 ZM878 588 q-21 -125 -53 -226 q-32 -101 -82 -183 q43 -65 97 -114.5 q54 -49.5 122 -80.5 q-12 -10 -25 -26 q-13 -16 -21 -30 q-66 33 -118.5 81.5 q-52.5 48.5 -94.5 110.5 q-48 -62 -109 -111.5 q-61 -49.5 -140 -88.5 q-5 12 -17 30.5 q-12 18.5 -22 29.5 q81 37 142.5 87 q61.5 50 107.5 115 q-36 66 -64 141 q-28 75 -48 160 q-17 -36 -36 -68.5 q-19 -32.5 -39 -60.5 q-8 9 -24.5 24 q-16.5 15 -27.5 23 q62 79 104.5 193 q42.5 114 68.5 241 l64 -11 q-10 -45 -20.5 -88 q-10.5 -43 -24.5 -85 l329 0 l0 -63 l-69 0 Z" /><glyph glyph-name="" unicode="&#x653e;" d="M264 683 q-8 28 -23 66 q-15 38 -30 70 l57 18 q16 -32 32 -69.5 q16 -37.5 24 -63.5 l-60 -21 ZM442 471 q0 -6 0 -12 q0 -5 -0.5 -10.5 q-0.5 -5.5 -0.5 -8.5 q-2 -124 -5 -208.5 q-3 -84.5 -7 -139 q-4 -54.5 -10.5 -83.5 q-6.5 -29 -15.5 -42 q-12 -16 -25.5 -22 q-13.5 -6 -32.5 -8 q-18 -2 -47 -2 q-29 0 -61 2 q-1 14 -5.5 31 q-4.5 17 -12.5 31 q32 -3 59 -4 q27 -1 39 -1 q10 0 17 2.5 q7 2.5 12 11.5 q6 8 11 32.5 q5 24.5 9 71.5 q4 47 6.5 120 q2.5 73 5.5 178 l-145 0 l0 -10 q0 -62 -5 -124 q-5 -62 -21.5 -123 q-16.5 -61 -47 -118.5 q-30.5 -57.5 -80.5 -110.5 q-8 11 -22.5 23 q-14.5 12 -25.5 20 q46 49 73.5 103 q27.5 54 41.5 109.5 q14 55.5 18.5 111 q4.5 55.5 4.5 109.5 l0 210 l-121 0 l0 62 l442 0 l0 -62 l-257 0 l0 -139 l209 0 ZM616 577 q17 -92 40.5 -174.5 q23.5 -82.5 58.5 -154.5 q38 70 62.5 154 q24.5 84 39.5 185 l-197 0 l-4 -10 ZM884 587 q-20 -124 -52 -224 q-32 -100 -80 -181 q42 -67 94 -117.5 q52 -50.5 119 -82.5 q-11 -10 -24.5 -26 q-13.5 -16 -21.5 -30 q-65 34 -116 83.5 q-51 49.5 -92 112.5 q-90 -123 -241 -200 q-5 11 -17 29 q-12 18 -22 29 q80 38 140.5 88 q60.5 50 105.5 116 q-33 63 -57.5 136.5 q-24.5 73.5 -43.5 156.5 q-17 -38 -36 -71.5 q-19 -33.5 -40 -62.5 q-8 10 -24.5 25.5 q-16.5 15.5 -27.5 23.5 q30 40 55.5 90 q25.5 50 46.5 107.5 q21 57.5 37 120 q16 62.5 28 126.5 l68 -11 q-9 -45 -19.5 -89 q-10.5 -44 -23.5 -87 l316 0 l0 -62 l-72 0 Z" /></font>
</defs>
</svg>
